<?xml version="1.0" standalone="no"?>
<!DOCTYPE svg PUBLIC "-//W3C//DTD SVG 20010904//EN"
 "http://www.w3.org/TR/2001/REC-SVG-20010904/DTD/svg10.dtd">
<svg version="1.0" xmlns="http://www.w3.org/2000/svg"
 width="700.000000pt" height="700.000000pt" viewBox="0 0 700.000000 700.000000"
 preserveAspectRatio="xMidYMid meet">
<metadata>
Created by potrace 1.14, written by Peter Selinger 2001-2017
</metadata>
<g transform="translate(0.000000,700.000000) scale(0.100000,-0.100000)"
fill="#000000" stroke="none">
<path d="M0 3500 l0 -3500 3500 0 3500 0 0 3500 0 3500 -3500 0 -3500 0 0
-3500z m2971 3140 c544 -55 988 -213 1377 -492 132 -94 344 -311 430 -440 165
-250 235 -471 235 -743 0 -314 -105 -590 -327 -863 -40 -50 -64 -87 -60 -95 4
-6 95 -153 202 -326 174 -281 193 -316 183 -337 -7 -16 -19 -24 -36 -24 -14 0
-220 63 -459 140 -239 77 -442 140 -451 140 -8 0 -46 -15 -83 -34 -176 -88
-437 -176 -655 -220 -795 -161 -1632 -16 -2232 387 -130 87 -216 160 -336 284
-579 600 -538 1430 101 2001 397 354 921 563 1570 625 85 9 447 6 541 -3z
m3579 -2860 l0 -620 -160 0 -160 0 0 -598 0 -598 174 -780 c96 -428 177 -791
181 -806 l7 -28 -264 0 -265 0 -67 338 c-90 447 -87 435 -96 425 -5 -4 -72
-178 -150 -385 l-143 -378 -264 0 c-248 0 -265 1 -258 18 3 9 134 372 291 805
l284 788 0 215 0 214 -590 0 -590 0 0 255 0 255 590 0 590 0 0 130 0 130 -165
0 -165 0 0 620 0 620 610 0 610 0 0 -620z"/>
<path d="M2588 6061 c-237 -52 -436 -156 -474 -248 -21 -48 -18 -122 6 -161
26 -43 98 -76 143 -66 18 3 82 31 142 60 152 74 248 97 384 92 129 -4 188 -28
236 -97 27 -39 30 -50 30 -119 -1 -103 -36 -177 -144 -306 -211 -251 -267
-373 -259 -563 3 -78 5 -85 35 -115 29 -28 39 -32 85 -32 88 0 112 25 139 144
29 133 69 190 264 390 169 172 212 231 251 347 33 97 38 236 12 323 -49 159
-198 290 -394 345 -94 27 -346 30 -456 6z"/>
<path d="M2651 4294 c-94 -47 -137 -148 -111 -261 15 -69 83 -145 145 -162
142 -39 265 20 301 145 38 130 -23 263 -134 294 -68 18 -143 12 -201 -16z"/>
</g>
</svg>
