<svg xmlns="http://www.w3.org/2000/svg" xmlns:xlink="http://www.w3.org/1999/xlink" width="1000" height="1000" viewBox="0 0 1000 1000">
  <defs>
    <clipPath id="clip-HuskSync">
      <rect width="1000" height="1000"/>
    </clipPath>
  </defs>
  <g id="HuskSync" clip-path="url(#clip-HuskSync)">
    <rect width="1000" height="1000" fill="#142b42"/>
    <rect id="Rectangle_4" data-name="Rectangle 4" width="1000" height="1000" fill="#142b42"/>
    <path id="Intersection_5" data-name="Intersection 5" d="M-3538.6,902.914l36.592-8.124-43.94-172.908-72.67,172.908h-100.113l130.79-315.3V540.341l-.031.045a330.357,330.357,0,0,1-27.166,28.344,343.064,343.064,0,0,1-30.2,25.2,253.264,253.264,0,0,1-37.886,23.381,240.68,240.68,0,0,1-42.306,15.758,348.863,348.863,0,0,1-39.927,8.426,349.3,349.3,0,0,1-41.349,4l4.137,28.132-94.188-48.334,67.713-83.218,4.994,25.888c.012,0,.9.029,2.51.029,12.375,0,76.747-1.8,128.917-37.43,30.139-20.581,57.025-49.52,74.272-70.172a495.759,495.759,0,0,0,30.507-40.284V323.581h-63.509V87.333h233.529V323.581H-3478.5V579.489l74.368,296.144,34.418-8.6-62.568,101.634Zm-547.9-8.124h-103.779L-4111.062,550V323.581h-60.577V87.333h233.529V323.581h-63.517v48.583a351.027,351.027,0,0,0,44.739,28.4c24.292,13.045,60.625,28.769,95.768,29.585,1.3.03,2.6.045,3.895.045,34.017,0,61.818-10.536,79.151-19.374,18.657-9.514,29.654-19.277,29.762-19.374l-16.551-27.3,113.345,18.2-33.089,112.516L-3704.47,465.9l-.024.018a420.293,420.293,0,0,1-50.309,25.63,365.061,365.061,0,0,1-50.166,17.633c-20,5.319-38.674,8.015-55.5,8.016h-.647a214.119,214.119,0,0,1-53.148-7.371,292.659,292.659,0,0,1-44.835-15.917,291.986,291.986,0,0,1-42.523-23.059V550a656.383,656.383,0,0,0,11.67,68.317c7.659,33.845,21.225,79.287,42.371,103.564,15.067,17.3,35.541,26.066,60.847,26.066a130.6,130.6,0,0,0,34.434-4.984,113.635,113.635,0,0,0,14.426-4.983l-23.242-37.642,141.549,21.544L-3779.8,850.916l-19.364-31.194-.016.014a131.91,131.91,0,0,1-21.979,11.8,150.592,150.592,0,0,1-24.354,8.12,131.274,131.274,0,0,1-30.472,3.692,118.975,118.975,0,0,1-15.675-1.033c-24.093-3.214-40.955-6.3-55.849-12.554-14.3-6.008-26.941-14.965-45.247-29.393a183.91,183.91,0,0,1-24.595-23.622,231.665,231.665,0,0,1-17.853-23.4,209.554,209.554,0,0,1-14.565-25.044L-4086.5,894.79h0Z" transform="translate(4280 2)" fill="#fff" stroke="#707070" stroke-width="1"/>
  </g>
</svg>
