<svg xmlns="http://www.w3.org/2000/svg" xmlns:xlink="http://www.w3.org/1999/xlink" width="1000" height="1000" viewBox="0 0 1000 1000">
  <defs>
    <clipPath id="clip-HuskHelp">
      <rect width="1000" height="1000"/>
    </clipPath>
  </defs>
  <g id="HuskHelp" clip-path="url(#clip-HuskHelp)">
    <rect width="1000" height="1000" fill="#142b42"/>
    <g id="Group_3" data-name="Group 3">
      <path id="Path_6" data-name="Path 6" d="M518.7,258.174v36.533H349.709v74.209H518.7V428.43L435.054,660.445H511.73L553.9,548.611l22.532,111.834h76.416L600.992,428.43V258.174h45.554V80.529h-175.6V258.174Z" transform="translate(289.501 290.705)" fill="#fff"/>
      <path id="Subtraction_4" data-name="Subtraction 4" d="M-736-543a461.453,461.453,0,0,1-67.313-4.906,430.532,430.532,0,0,1-62.7-14.072,388.448,388.448,0,0,1-56.735-22.266,336.912,336.912,0,0,1-49.431-29.489,281.883,281.883,0,0,1-40.784-35.741,231.9,231.9,0,0,1-30.795-41.022,195.342,195.342,0,0,1-19.462-45.332A178.73,178.73,0,0,1-1070-784.5a178.731,178.731,0,0,1,6.786-48.671,195.342,195.342,0,0,1,19.462-45.332,231.9,231.9,0,0,1,30.795-41.022,281.87,281.87,0,0,1,40.784-35.742,336.91,336.91,0,0,1,49.431-29.489,388.444,388.444,0,0,1,56.735-22.266,430.5,430.5,0,0,1,62.7-14.072A461.429,461.429,0,0,1-736-1026a461.429,461.429,0,0,1,67.313,4.906,430.5,430.5,0,0,1,62.7,14.072,388.437,388.437,0,0,1,56.735,22.266,336.9,336.9,0,0,1,49.431,29.489,281.862,281.862,0,0,1,40.784,35.742A231.876,231.876,0,0,1-428.247-878.5a195.335,195.335,0,0,1,19.462,45.332A178.733,178.733,0,0,1-402-784.5a180.866,180.866,0,0,1-15.048,71.89c-9.665,22.441-23.834,43.725-42.114,63.263l56.222,90.613a6.913,6.913,0,0,1,1.079,3.655,6.959,6.959,0,0,1-.888,3.406,7,7,0,0,1-6.072,3.649,7.214,7.214,0,0,1-2.209-.354l-127.911-41.113a391.459,391.459,0,0,1-91.607,34.208A451.678,451.678,0,0,1-736-543Zm11.943-148.92c-9.927,0-17.995,3.035-23.98,9.02s-9.02,13.757-9.02,23.1c0,9.635,3.035,17.629,9.02,23.76s14.053,9.24,23.98,9.24c10.218,0,18.286-3.109,23.98-9.24s8.58-14.126,8.58-23.76c0-9.342-2.887-17.114-8.58-23.1S-713.838-691.92-724.056-691.92Zm1.76-204.16a64.233,64.233,0,0,1,17.16,2.09,35.981,35.981,0,0,1,12.76,6.27,27.073,27.073,0,0,1,7.92,9.9,30.772,30.772,0,0,1,2.64,12.98,52.287,52.287,0,0,1-1.375,11.99,52.17,52.17,0,0,1-4.125,11.33c-3.651,7.3-10.238,16.183-19.579,26.4-12.262,13.722-21.071,26.6-26.18,38.28a93.786,93.786,0,0,0-7.7,37.841c0,6.131,1.555,11.09,4.62,14.74s7.433,5.5,12.98,5.5c5.255,0,9.474-1.332,12.54-3.96a14.2,14.2,0,0,0,5.06-10.121,79.9,79.9,0,0,1,3.63-14.96,81.591,81.591,0,0,1,6.49-14.08,97.939,97.939,0,0,1,11.11-14.96,231.34,231.34,0,0,1,17.49-17.6c15.183-13.724,25.916-26.6,31.9-38.28a82.147,82.147,0,0,0,9.02-37.841c0-14.6-3.923-27.478-11.659-38.28s-18.692-19.389-32.56-25.52-30.226-9.239-48.62-9.239a167.785,167.785,0,0,0-44,6.38,144.087,144.087,0,0,0-41.36,18.259c-7.59,4.963-12.327,10.737-14.08,17.16s-1.308,12.345,1.32,17.6a19.478,19.478,0,0,0,12.98,10.339,18.533,18.533,0,0,0,4.8.619c4.815,0,10.231-1.763,16.1-5.239a151.526,151.526,0,0,1,28.82-12.98,92.486,92.486,0,0,1,15.125-3.465A117.6,117.6,0,0,1-722.3-896.08Z" transform="translate(1119.296 1075)" fill="#fff"/>
    </g>
  </g>
</svg>
