<svg xmlns="http://www.w3.org/2000/svg" xmlns:xlink="http://www.w3.org/1999/xlink" width="1000" height="1000" viewBox="0 0 1000 1000">
  <defs>
    <clipPath id="clip-SchematicUpload">
      <rect width="1000" height="1000"/>
    </clipPath>
  </defs>
  <g id="SchematicUpload" clip-path="url(#clip-SchematicUpload)">
    <rect width="1000" height="1000" fill="#142b42"/>
    <path id="Exclusion_4" data-name="Exclusion 4" d="M-9148.854,859.134h-545.2a37.719,37.719,0,0,1-15.188-3.159,38.606,38.606,0,0,1-12.375-8.633,40.217,40.217,0,0,1-8.33-12.828,41.589,41.589,0,0,1-3.05-15.746V38.366a41.582,41.582,0,0,1,3.05-15.743,40.2,40.2,0,0,1,8.33-12.828,38.547,38.547,0,0,1,12.375-8.633A37.718,37.718,0,0,1-9694.056-2h324.525V226.738c0,22.258,17.469,40.366,38.94,40.366h220.678v81.671h-.054a20.37,20.37,0,0,0-14.77,6.308L-9289.3,525.775a22.663,22.663,0,0,0-4.7,24.434,21.267,21.267,0,0,0,19.957,13.81h94.887V752.428c0,14.841,11.65,26.915,25.969,26.915h43.277v39.425a41.612,41.612,0,0,1-3.049,15.746,40.182,40.182,0,0,1-8.329,12.828,38.583,38.583,0,0,1-12.375,8.633A37.715,37.715,0,0,1-9148.854,859.134Zm-471.468-123.385c-4.48,0-7.889,1.161-10.13,3.451s-3.377,5.773-3.377,10.352c0,4.516,1.137,7.951,3.377,10.208s5.649,3.4,10.13,3.4h108.6c4.354,0,7.729-1.21,10.033-3.6s3.47-5.823,3.47-10.206a16.227,16.227,0,0,0-2.251-9.042,21.368,21.368,0,0,0-7.313-6.319l-73.338-41.6,73.338-41.6a21.373,21.373,0,0,0,7.313-6.319c1.494-2.255,2.251-5.362,2.251-9.234,0-4.515-1.166-8.048-3.47-10.5s-5.68-3.695-10.033-3.695h-108.6c-4.231,0-7.576,1.178-9.941,3.5s-3.565,5.725-3.565,10.11c0,4.515,1.137,7.949,3.377,10.207s5.649,3.4,10.13,3.4h68.273l-54.771,31.884a16.225,16.225,0,0,0-5.346,4.861,12.624,12.624,0,0,0-1.78,7,12.153,12.153,0,0,0,1.78,6.9,18.86,18.86,0,0,0,5.346,4.958l55.331,31.884ZM-9522.6,531.8v54.827c0,3.934.962,6.927,2.859,8.894s4.784,2.965,8.58,2.965c3.734,0,6.574-1,8.441-2.965s2.814-4.959,2.814-8.894V518.778a22.671,22.671,0,0,0-.949-6.89,12.522,12.522,0,0,0-2.85-4.921,11.9,11.9,0,0,0-4.747-2.953,20.471,20.471,0,0,0-6.647-.984h-101.851a20.446,20.446,0,0,0-6.646.984,11.893,11.893,0,0,0-4.747,2.953,12.515,12.515,0,0,0-2.848,4.921,22.67,22.67,0,0,0-.95,6.89v67.853c0,3.935.963,6.927,2.861,8.894s4.785,2.965,8.58,2.965c3.733,0,6.573-1,8.44-2.965s2.813-4.96,2.813-8.894V531.8h33.012v50.356c0,4,.961,7.04,2.859,9.04s4.786,3.014,8.584,3.014,6.682-1.014,8.579-3.014,2.861-5.041,2.861-9.04V531.8h30.949Zm-96.223-86.516c-4.73,0-8.453,1.309-11.065,3.89a12.367,12.367,0,0,0-2.955,4.714,19.053,19.053,0,0,0-.985,6.368,19.809,19.809,0,0,0,.985,6.512,12.334,12.334,0,0,0,2.955,4.764c2.613,2.579,6.336,3.887,11.065,3.887h105.6c4.979,0,8.765-1.275,11.253-3.791a11.961,11.961,0,0,0,2.813-4.739,21.255,21.255,0,0,0,.938-6.635,20.735,20.735,0,0,0-.938-6.55,11.781,11.781,0,0,0-2.813-4.679c-2.488-2.484-6.274-3.743-11.253-3.743h-39.765V381.519h39.765c4.979,0,8.765-1.259,11.253-3.743a11.78,11.78,0,0,0,2.813-4.679,20.736,20.736,0,0,0,.938-6.55,21.254,21.254,0,0,0-.938-6.635,11.961,11.961,0,0,0-2.813-4.739c-2.488-2.515-6.274-3.791-11.253-3.791h-105.6c-4.73,0-8.454,1.309-11.065,3.89a12.315,12.315,0,0,0-2.955,4.762,19.805,19.805,0,0,0-.985,6.512,20.764,20.764,0,0,0,.938,6.55,11.78,11.78,0,0,0,2.813,4.679c2.489,2.484,6.275,3.743,11.254,3.743h41.64v63.768Zm52.9-230.968a85.491,85.491,0,0,0-19.438,2.114,65.017,65.017,0,0,0-16.669,6.343,58.894,58.894,0,0,0-13.575,10.28,61.018,61.018,0,0,0-10.151,13.924,68.045,68.045,0,0,0-6.332,17.352,94.947,94.947,0,0,0-2.111,20.56,84.791,84.791,0,0,0,2.627,20.706,61.09,61.09,0,0,0,7.315,17.788c2.117,3.613,4.862,5.837,8.159,6.61a14.531,14.531,0,0,0,3.322.4,12.4,12.4,0,0,0,5.867-1.469,12.662,12.662,0,0,0,6-6.9,10.342,10.342,0,0,0,.538-5.057,18.081,18.081,0,0,0-1.944-5.833,51.567,51.567,0,0,1-4.69-12.539,56.883,56.883,0,0,1-1.5-12.734,49.376,49.376,0,0,1,2.767-17.231,31.274,31.274,0,0,1,8.3-12.419,36.041,36.041,0,0,1,13.411-7.508,60.081,60.081,0,0,1,18.1-2.5,59.84,59.84,0,0,1,18.076,2.5,35.608,35.608,0,0,1,13.34,7.508,31.265,31.265,0,0,1,8.229,12.419,49.769,49.769,0,0,1,2.744,17.231,57.15,57.15,0,0,1-1.5,13.025,44.73,44.73,0,0,1-4.875,12.249,15.8,15.8,0,0,0-1.923,5.542,9.83,9.83,0,0,0,.61,4.958,12.835,12.835,0,0,0,6.376,6.9,12.97,12.97,0,0,0,5.814,1.39,14.515,14.515,0,0,0,3.751-.514c3.36-.9,6.2-3.39,8.44-7.387a69.526,69.526,0,0,0,6.565-17.4,83.613,83.613,0,0,0,2.438-19.734,95.035,95.035,0,0,0-2.108-20.56,67.988,67.988,0,0,0-6.331-17.352,61.029,61.029,0,0,0-10.153-13.924,58.871,58.871,0,0,0-13.575-10.28,65.176,65.176,0,0,0-16.623-6.343A84.424,84.424,0,0,0-9565.927,214.319ZM-9612.4,88.942a14.207,14.207,0,0,0-3.892.561c-3.174.9-5.729,3.19-7.6,6.8a77.75,77.75,0,0,0-7.69,21.582,120.888,120.888,0,0,0-2.627,24.884,93.5,93.5,0,0,0,1.291,15.967,65.639,65.639,0,0,0,3.868,13.682,51.53,51.53,0,0,0,6.191,11.131,40.194,40.194,0,0,0,8.253,8.312,34.276,34.276,0,0,0,10.057,5.176,38.205,38.205,0,0,0,11.606,1.725,32.91,32.91,0,0,0,12.638-2.357,29.392,29.392,0,0,0,10.15-7.072,42.9,42.9,0,0,0,7.668-11.787,79.526,79.526,0,0,0,5.183-16.5l4.5-21.969c1.371-6.713,3.2-11.488,5.438-14.192a10.939,10.939,0,0,1,8.817-4.085,13.339,13.339,0,0,1,6.634,1.677,16,16,0,0,1,5.274,5.031,24.412,24.412,0,0,1,3.446,8.092,46.511,46.511,0,0,1,1.149,10.863,72.381,72.381,0,0,1-1.5,14.777,56.446,56.446,0,0,1-4.691,13.607,19.923,19.923,0,0,0-1.828,5.907,10.067,10.067,0,0,0,.516,4.884,10.825,10.825,0,0,0,5.816,6.223,12.672,12.672,0,0,0,5.2,1.132,13.693,13.693,0,0,0,3.427-.451,11.964,11.964,0,0,0,7.313-6.028,64.174,64.174,0,0,0,7.411-18.469,91.388,91.388,0,0,0,2.531-21.387,87.726,87.726,0,0,0-1.312-15.529,65.015,65.015,0,0,0-3.938-13.536,51.6,51.6,0,0,0-6.31-11.155,41.279,41.279,0,0,0-8.415-8.384,35.086,35.086,0,0,0-10.245-5.25,38.923,38.923,0,0,0-11.795-1.75,36.794,36.794,0,0,0-13.271,2.3,30.241,30.241,0,0,0-10.549,6.89,40.359,40.359,0,0,0-7.831,11.483,71.825,71.825,0,0,0-5.11,16.076l-4.5,21.969c-1.494,7.1-3.325,12.135-5.439,14.972a10.244,10.244,0,0,1-8.628,4.277,11.515,11.515,0,0,1-5.84-1.531,15.053,15.053,0,0,1-4.759-4.593,22.4,22.4,0,0,1-3.165-8.094,59.686,59.686,0,0,1-1.054-12.03,89.285,89.285,0,0,1,2.063-18.859,63.154,63.154,0,0,1,6.378-17.3c1.866-4,2.181-7.466.938-10.3a11.817,11.817,0,0,0-6.378-6.22A13.537,13.537,0,0,0-9612.4,88.942Zm545.765,690.4h-43.278V348.776a20.4,20.4,0,0,1,14.717,6.308l164.672,170.691a22.551,22.551,0,0,1,6.079,11.944,23.3,23.3,0,0,1-1.375,12.49,22.378,22.378,0,0,1-7.537,9.825,20.9,20.9,0,0,1-12.421,3.986h-94.89V752.428a27.25,27.25,0,0,1-7.587,19.051A25.346,25.346,0,0,1-9066.634,779.343Zm-43.278-566.059h-207.7V-2h9.9a37.916,37.916,0,0,1,14.949,3.05,38.42,38.42,0,0,1,12.635,8.724L-9121.271,174.6a40.156,40.156,0,0,1,8.419,13.077,41.256,41.256,0,0,1,2.939,15.345v10.26Z" transform="translate(9841.564 71.433)" fill="#fff"/>
  </g>
</svg>
