<svg xmlns="http://www.w3.org/2000/svg" xmlns:xlink="http://www.w3.org/1999/xlink" width="1400" height="1400" viewBox="0 0 1400 1400">
  <defs>
    <linearGradient id="linear-gradient" x1="0.5" x2="0.5" y2="1" gradientUnits="objectBoundingBox">
      <stop offset="0" stop-color="#142b42"/>
      <stop offset="0.626" stop-color="#0e1d2d"/>
      <stop offset="1" stop-color="#08111b"/>
    </linearGradient>
    <filter id="Path_21">
      <feOffset dx="24" dy="32" input="SourceAlpha"/>
      <feGaussianBlur stdDeviation="24" result="blur"/>
      <feFlood flood-opacity="0.161" result="color"/>
      <feComposite operator="out" in="SourceGraphic" in2="blur"/>
      <feComposite operator="in" in="color"/>
      <feComposite operator="in" in2="SourceGraphic"/>
    </filter>
    <filter id="Exclusion_21" x="153.122" y="137.047" width="1141.757" height="1189.906" filterUnits="userSpaceOnUse">
      <feOffset dx="24" dy="32" input="SourceAlpha"/>
      <feGaussianBlur stdDeviation="24" result="blur-2"/>
      <feFlood flood-opacity="0.161"/>
      <feComposite operator="in" in2="blur-2"/>
      <feComposite in="SourceGraphic"/>
    </filter>
    <clipPath id="clip-ClopLib">
      <rect width="1400" height="1400"/>
    </clipPath>
  </defs>
  <g id="ClopLib" clip-path="url(#clip-ClopLib)">
    <g data-type="innerShadowGroup">
      <path id="Path_21-2" data-name="Path 21" d="M150,0H1250a150,150,0,0,1,150,150V1250a150,150,0,0,1-150,150H150A150,150,0,0,1,0,1250V150A150,150,0,0,1,150,0Z" fill="url(#linear-gradient)"/>
      <g transform="matrix(1, 0, 0, 1, 0, 0)" filter="url(#Path_21)">
        <path id="Path_21-3" data-name="Path 21" d="M150,0H1250a150,150,0,0,1,150,150V1250a150,150,0,0,1-150,150H150A150,150,0,0,1,0,1250V150A150,150,0,0,1,150,0Z" fill="#fff"/>
      </g>
    </g>
    <g transform="matrix(1, 0, 0, 1, 0, 0)" filter="url(#Exclusion_21)">
      <path id="Exclusion_21-2" data-name="Exclusion 21" d="M5026.954-1561.094a525.293,525.293,0,0,1-114.705-12.653,25.161,25.161,0,0,1-14.212-8.859,25.446,25.446,0,0,1-5.541-15.815v-103.748a394.8,394.8,0,0,1-127.76-74.013l-89.516,51.875a24.573,24.573,0,0,1-12.4,3.337,25.512,25.512,0,0,1-18.7-8.19,528.726,528.726,0,0,1-68.191-92.781,523.993,523.993,0,0,1-46.755-106.7,25.489,25.489,0,0,1,11.555-29.52l89.517-51.877a405.951,405.951,0,0,1,0-148.028l-89.517-51.869a25.137,25.137,0,0,1-11.555-29.52,522.725,522.725,0,0,1,46.755-106.862,523.554,523.554,0,0,1,68.191-92.616,24.868,24.868,0,0,1,18.447-8.252,25.435,25.435,0,0,1,12.647,3.4l89.307,51.869a407.214,407.214,0,0,1,127.754-74.013v-103.745a25.426,25.426,0,0,1,5.545-15.817,25.142,25.142,0,0,1,14.215-8.855A525.193,525.193,0,0,1,5026.792-2607a525.214,525.214,0,0,1,114.708,12.656,25.149,25.149,0,0,1,14.214,8.855,25.421,25.421,0,0,1,5.543,15.817v103.531a394.8,394.8,0,0,1,127.757,74.017L5378.525-2444a24.582,24.582,0,0,1,12.4-3.342,25.542,25.542,0,0,1,18.7,8.192,528.77,528.77,0,0,1,68.188,92.781,523.717,523.717,0,0,1,46.752,106.7,25.485,25.485,0,0,1-11.56,29.526L5423.5-2158.27a406.137,406.137,0,0,1,0,148.026l89.512,51.875c10.114,5.8,14.954,18.025,11.774,29.729a522.618,522.618,0,0,1-46.76,106.862,523.919,523.919,0,0,1-68.184,92.62,24.909,24.909,0,0,1-18.461,8.246,25.521,25.521,0,0,1-12.642-3.394l-89.514-51.873a407.366,407.366,0,0,1-127.762,74.011v103.748a25.431,25.431,0,0,1-5.541,15.815,25.149,25.149,0,0,1-14.208,8.859A525.319,525.319,0,0,1,5026.954-1561.094Zm25.551-761.929c-50.871,0-95.179,9.954-131.684,29.584s-64.84,47.608-84.186,83.16-29.159,77.92-29.159,125.9,9.811,90.454,29.159,126.227,47.666,63.865,84.186,83.5,80.813,29.582,131.684,29.582a295.557,295.557,0,0,0,67.151-7.887c22.4-5.242,41.465-12.539,56.667-21.695,11.729-6.1,19.886-14.284,24.24-24.323a55.483,55.483,0,0,0,4.258-30.576,54.628,54.628,0,0,0-12.123-27.284,47.3,47.3,0,0,0-25.222-15.778,40.8,40.8,0,0,0-10.145-1.248c-7.6,0-15.978,1.97-24.9,5.853a173.432,173.432,0,0,1-38.653,13.48,174.54,174.54,0,0,1-36.689,4.269c-20.215,0-38.181-2.9-53.392-8.627a95.9,95.9,0,0,1-38.326-25.883c-10.216-11.454-17.99-25.639-23.1-42.164s-7.7-35.853-7.7-57.443c0-21.373,2.59-40.532,7.7-56.948s12.88-30.545,23.1-41.992a95.874,95.874,0,0,1,38.326-25.893c15.213-5.725,33.182-8.627,53.392-8.627,26.957,0,53.63,6.417,79.271,19.07,7.54,3.78,14.79,5.694,21.543,5.694a34.872,34.872,0,0,0,9.909-1.426,45.981,45.981,0,0,0,23.909-16.764,57.922,57.922,0,0,0,11.462-28.27,54.956,54.956,0,0,0-5.243-30.9c-4.78-10.034-13.376-18.437-25.546-24.985-16.507-9.158-35.8-16.125-57.326-20.709A301.894,301.894,0,0,0,5052.5-2323.023Z" transform="translate(-4326.87 2784.05)" fill="#fff"/>
    </g>
  </g>
</svg>
