<svg xmlns="http://www.w3.org/2000/svg" xmlns:xlink="http://www.w3.org/1999/xlink" width="1400" height="1400" viewBox="0 0 1400 1400">
  <defs>
    <linearGradient id="linear-gradient" x1="0.5" x2="0.5" y2="1" gradientUnits="objectBoundingBox">
      <stop offset="0" stop-color="#142b42"/>
      <stop offset="0.626" stop-color="#0e1d2d"/>
      <stop offset="1" stop-color="#08111b"/>
    </linearGradient>
    <filter id="Path_19">
      <feOffset dx="24" dy="32" input="SourceAlpha"/>
      <feGaussianBlur stdDeviation="24" result="blur"/>
      <feFlood flood-opacity="0.161" result="color"/>
      <feComposite operator="out" in="SourceGraphic" in2="blur"/>
      <feComposite operator="in" in="color"/>
      <feComposite operator="in" in2="SourceGraphic"/>
    </filter>
    <filter id="Union_2" x="181.486" y="79.058" width="1064.026" height="1321.548" filterUnits="userSpaceOnUse">
      <feOffset dx="24" dy="32" input="SourceAlpha"/>
      <feGaussianBlur stdDeviation="24" result="blur-2"/>
      <feFlood flood-opacity="0.161"/>
      <feComposite operator="in" in2="blur-2"/>
      <feComposite in="SourceGraphic"/>
    </filter>
    <clipPath id="clip-HuskChat">
      <rect width="1400" height="1400"/>
    </clipPath>
  </defs>
  <g id="HuskChat" clip-path="url(#clip-HuskChat)">
    <g data-type="innerShadowGroup">
      <path id="Path_19-2" data-name="Path 19" d="M150,0H1250a150,150,0,0,1,150,150V1250a150,150,0,0,1-150,150H150A150,150,0,0,1,0,1250V150A150,150,0,0,1,150,0Z" fill="url(#linear-gradient)"/>
      <g transform="matrix(1, 0, 0, 1, 0, 0)" filter="url(#Path_19)">
        <path id="Path_19-3" data-name="Path 19" d="M150,0H1250a150,150,0,0,1,150,150V1250a150,150,0,0,1-150,150H150A150,150,0,0,1,0,1250V150A150,150,0,0,1,150,0Z" fill="#fff"/>
      </g>
    </g>
    <g transform="matrix(1, 0, 0, 1, 0, 0)" filter="url(#Union_2)">
      <path id="Union_2-2" data-name="Union 2" d="M592.487-549.154c-77.08-2.731-121.769-12.4-164.988-21.75-38.011-8.225-73.914-15.993-134.36-18.254C169.322-593.79,75.27-571.081,74.335-570.85A60,60,0,0,1,1.748-614.8a60.006,60.006,0,0,1,38.877-71.1l123.783-340.092-.02-.007v-400h-65a25,25,0,0,1-25-25v-250a25,25,0,0,1,25-25h250a25,25,0,0,1,25,25v250a25,25,0,0,1-25,25h-65v106h185a25,25,0,0,1,25,25v70a25,25,0,0,1-25,25h-185v174l-.053.02L403.657-698.146c17.584,3.11,33.5,6.555,49.218,9.955,39.836,8.618,77.462,16.76,143.86,19.112,132.577,4.7,250.27-18.623,251.443-18.859a60,60,0,0,1,70.657,46.985A60,60,0,0,1,871.85-570.3c-4.857.977-110.191,21.843-239.061,21.844Q612.963-548.452,592.487-549.154ZM175.8-706.431c28.734-2.28,61.1-3.685,95.949-3.277L224.37-839.878ZM164.389-1026Z" transform="translate(229.49 1845.06)" fill="#fff"/>
    </g>
    <path id="Union_15" data-name="Union 15" d="M-1337.485-2904.606a24.734,24.734,0,0,1-15.131,15.128l-56.938,20.349c-19.869,7.1-39.056-12.086-31.955-31.955l20.349-56.938a24.752,24.752,0,0,1,8.344-11.469c-16.07-23.356-25.058-49.463-25.058-77.007,0-99.687,117.707-180.5,262.905-180.5s262.906,80.813,262.906,180.5S-1029.771-2866-1174.97-2866C-1236.314-2866-1292.758-2880.428-1337.485-2904.606Z" transform="translate(2087.064 3360.058)" fill="#fff"/>
  </g>
</svg>
