<svg xmlns="http://www.w3.org/2000/svg" xmlns:xlink="http://www.w3.org/1999/xlink" width="1000" height="1000" viewBox="0 0 1000 1000">
  <defs>
    <clipPath id="clip-HuskBot_discord_">
      <rect width="1000" height="1000"/>
    </clipPath>
  </defs>
  <g id="HuskBot_discord_" data-name="HuskBot (discord)" clip-path="url(#clip-HuskBot_discord_)">
    <rect width="1000" height="1000" fill="#142b42"/>
    <g id="Rectangle_4" data-name="Rectangle 4" fill="#142b42" stroke="#707070" stroke-width="1">
      <rect width="1000" height="1000" stroke="none"/>
      <rect x="0.5" y="0.5" width="999" height="999" fill="none"/>
    </g>
    <path id="Exclusion_6" data-name="Exclusion 6" d="M1352.466,729.3h-106.95l-42.043-110.858L1172.753,729.3H1070l71.719-292.581v-214.7h-57.458V-2h221.492V222.018h-60.239v46.07h86.144c-1.985,3.894-3.845,7.889-5.529,11.876a169.739,169.739,0,0,0-13.573,66.369c0,2.51.058,5.066.172,7.6h71.189V268.088h-52.259a200.889,200.889,0,0,1,32.233-45.616L1326.942,143.7a5.4,5.4,0,0,1,.463-5.2,5.724,5.724,0,0,1,1.76-1.779,4.3,4.3,0,0,1,2.285-.693,3.907,3.907,0,0,1,1.28.218l97.825,33.917a3.728,3.728,0,0,1,1.782,1.313,293.953,293.953,0,0,1,66.065-24.215,322.321,322.321,0,0,1,74.486-8.627,326.644,326.644,0,0,1,52.465,4.219,308.985,308.985,0,0,1,48.867,12.1,286.442,286.442,0,0,1,44.221,19.15,258.634,258.634,0,0,1,38.528,25.362,227.948,227.948,0,0,1,31.788,30.74,199.12,199.12,0,0,1,24,35.281,177.685,177.685,0,0,1,15.17,38.988,168.3,168.3,0,0,1,0,83.718,177.683,177.683,0,0,1-15.17,38.988,199.091,199.091,0,0,1-24,35.281,228.068,228.068,0,0,1-31.788,30.74,258.669,258.669,0,0,1-38.528,25.362,286.487,286.487,0,0,1-44.221,19.15,308.949,308.949,0,0,1-48.867,12.1,328.246,328.246,0,0,1-104.931,0,309.028,309.028,0,0,1-48.867-12.1,286.533,286.533,0,0,1-44.221-19.15,258.645,258.645,0,0,1-38.528-25.362,228.015,228.015,0,0,1-31.789-30.74,199.092,199.092,0,0,1-24-35.281,177.6,177.6,0,0,1-15.169-38.988,169,169,0,0,1-5.117-34.263h-67.214v82.79L1352.465,729.3Zm152.608-311.1h0a94.276,94.276,0,0,0,30.479,17.592v24.659a6,6,0,0,0,4.712,5.864,126.06,126.06,0,0,0,54.742,0,6,6,0,0,0,4.712-5.864V435.8A97.24,97.24,0,0,0,1630.2,418.2l21.356,12.329a6.093,6.093,0,0,0,3.016.808,5.951,5.951,0,0,0,4.4-1.961,124.072,124.072,0,0,0,27.422-47.413,6.475,6.475,0,0,0-.2-4.041,5.944,5.944,0,0,0-2.606-3.026l-21.356-12.329a96.538,96.538,0,0,0,0-35.184l21.356-12.329a6.049,6.049,0,0,0,2.757-7.017,124.3,124.3,0,0,0-11.154-25.36,125.751,125.751,0,0,0-16.267-22.052,6.1,6.1,0,0,0-4.462-1.947,5.873,5.873,0,0,0-2.958.794l-21.356,12.329a94.262,94.262,0,0,0-30.478-17.592V229.605a6.006,6.006,0,0,0-4.713-5.864,126.065,126.065,0,0,0-54.742,0,6.005,6.005,0,0,0-4.712,5.864v24.659a97.243,97.243,0,0,0-30.479,17.592l-21.3-12.33a6.093,6.093,0,0,0-3.016-.808,5.951,5.951,0,0,0-4.4,1.961,124.054,124.054,0,0,0-27.421,47.412,5.994,5.994,0,0,0,2.757,7.017l21.355,12.329a96.522,96.522,0,0,0,0,35.183l-21.355,12.33a6.048,6.048,0,0,0-2.757,7.017,124.3,124.3,0,0,0,11.154,25.36A125.724,125.724,0,0,0,1476.3,429.38a6.1,6.1,0,0,0,4.461,1.947,5.875,5.875,0,0,0,2.958-.794l21.355-12.329Zm62.512-33.129a40.1,40.1,0,1,1,40.1-40.095A40.145,40.145,0,0,1,1567.586,385.074Z" transform="translate(-951.61 136.349)" fill="#fff"/>
  </g>
</svg>
