<svg xmlns="http://www.w3.org/2000/svg" xmlns:xlink="http://www.w3.org/1999/xlink" width="1400" height="1400" viewBox="0 0 1400 1400">
  <defs>
    <linearGradient id="linear-gradient" x1="0.5" x2="0.5" y2="1" gradientUnits="objectBoundingBox">
      <stop offset="0" stop-color="#142b42"/>
      <stop offset="0.626" stop-color="#0e1d2d"/>
      <stop offset="1" stop-color="#08111b"/>
    </linearGradient>
    <filter id="Path_19">
      <feOffset dx="24" dy="32" input="SourceAlpha"/>
      <feGaussianBlur stdDeviation="24" result="blur"/>
      <feFlood flood-opacity="0.161" result="color"/>
      <feComposite operator="out" in="SourceGraphic" in2="blur"/>
      <feComposite operator="in" in="color"/>
      <feComposite operator="in" in2="SourceGraphic"/>
    </filter>
    <filter id="Union_21" x="181.486" y="79.059" width="1064.026" height="1321.548" filterUnits="userSpaceOnUse">
      <feOffset dx="24" dy="32" input="SourceAlpha"/>
      <feGaussianBlur stdDeviation="24" result="blur-2"/>
      <feFlood flood-opacity="0.161"/>
      <feComposite operator="in" in2="blur-2"/>
      <feComposite in="SourceGraphic"/>
    </filter>
    <clipPath id="clip-HuskHomes_GUI">
      <rect width="1400" height="1400"/>
    </clipPath>
  </defs>
  <g id="HuskHomes_GUI" data-name="HuskHomes GUI" clip-path="url(#clip-HuskHomes_GUI)">
    <g data-type="innerShadowGroup">
      <path id="Path_19-2" data-name="Path 19" d="M150,0H1250a150,150,0,0,1,150,150V1250a150,150,0,0,1-150,150H150A150,150,0,0,1,0,1250V150A150,150,0,0,1,150,0Z" fill="url(#linear-gradient)"/>
      <g transform="matrix(1, 0, 0, 1, 0, 0)" filter="url(#Path_19)">
        <path id="Path_19-3" data-name="Path 19" d="M150,0H1250a150,150,0,0,1,150,150V1250a150,150,0,0,1-150,150H150A150,150,0,0,1,0,1250V150A150,150,0,0,1,150,0Z" fill="#fff"/>
      </g>
    </g>
    <g transform="matrix(1, 0, 0, 1, 0, 0)" filter="url(#Union_21)">
      <path id="Union_21-2" data-name="Union 21" d="M592.487-3896.154c-77.08-2.731-121.769-12.4-164.988-21.75-38.011-8.225-73.914-15.993-134.36-18.254-123.817-4.632-217.869,18.077-218.8,18.308A60,60,0,0,1,1.748-3961.8a60.025,60.025,0,0,1,28.092-66.2l125.569-345-.02-.007v-400h-65a25,25,0,0,1-25-25v-250a25,25,0,0,1,25-25h250a25,25,0,0,1,25,25v250a25,25,0,0,1-25,25h-65v400l-.053.02,118.727,326.2c21.484,3.511,40.289,7.58,58.813,11.588,39.836,8.618,77.462,16.76,143.86,19.112,132.577,4.7,250.27-18.623,251.443-18.859a60,60,0,0,1,70.657,46.985A60,60,0,0,1,871.85-3917.3c-4.857.978-110.191,21.843-239.061,21.844Q612.963-3895.452,592.487-3896.154Zm-425.971-156.5c28.544-2.514,61.031-4.221,96.208-4.12l-47.354-130.1ZM155.389-4373Zm120-210v-120h225a25,25,0,0,1,25,25v70a25,25,0,0,1-25,25Z" transform="translate(229.49 5192.06)" fill="#fff"/>
    </g>
    <path id="Path_53" data-name="Path 53" d="M-380,3.069q-33.2,0-56.219-12.555A84.491,84.491,0,0,1-471.231-44.64q-12-22.6-12-53.01,0-31.248,12.415-54.126a86.078,86.078,0,0,1,35.852-35.433q23.436-12.555,56.358-12.555a138.525,138.525,0,0,1,30.132,3.348,106.371,106.371,0,0,1,29.016,11.16q7.533,4.185,9.068,11.16a20.643,20.643,0,0,1-1.534,13.532,18.956,18.956,0,0,1-9.346,9.486q-6.278,2.93-14.927-1.255-18.693-9.765-42.129-9.765-29.853,0-44.78,16.6T-438.03-97.65q0,31.527,15.206,47.709t45.059,16.182a121.9,121.9,0,0,0,33.48-5.022v-38.5H-369.4q-17.3,0-17.3-15.624t17.3-15.624h43.8q17.019,0,17.019,17.3v64.728a23.991,23.991,0,0,1-2.93,12.276,16.631,16.631,0,0,1-9.347,7.254A177.366,177.366,0,0,1-349.029.279,175.888,175.888,0,0,1-380,3.069Zm193.9,0q-41.85,0-63.752-21.483t-21.9-63.891v-94.86q0-10.6,5.58-16.322t16.182-5.719q21.483,0,21.483,22.041v95.139q0,23.994,10.881,36.13t31.527,12.137q42.129,0,42.129-48.267v-95.139q0-22.041,21.483-22.041,10.323,0,15.764,5.719t5.441,16.322v94.86q0,42.408-21.483,63.891T-186.093,3.069Zm144.8-.558q-10.6,0-16.182-5.859t-5.58-16.461V-176.886q0-22.32,21.762-22.32,21.483,0,21.483,22.32V-19.809Q-19.809,2.511-41.292,2.511Z" transform="translate(1319 282)" fill="#fff"/>
  </g>
</svg>
