<svg xmlns="http://www.w3.org/2000/svg" xmlns:xlink="http://www.w3.org/1999/xlink" width="1000" height="1000" viewBox="0 0 1000 1000">
  <defs>
    <clipPath id="clip-HuskChat">
      <rect width="1000" height="1000"/>
    </clipPath>
  </defs>
  <g id="HuskChat" clip-path="url(#clip-HuskChat)">
    <rect width="1000" height="1000" fill="#142b42"/>
    <path id="Intersection_7" data-name="Intersection 7" d="M-2337.072-122.85-2359.6-234.684-2401.77-122.85h-76.676l83.646-232.015v-59.514h-168.991v-74.21H-2394.8v-36.533h-47.759V-702.766h175.6v177.645h-45.554v170.257l51.853,232.015Zm-675.171,0-42.167-111.834-22.532,111.834h-76.416l51.853-232.015V-525.121h-45.554V-702.766h175.6v177.645h-47.758v36.533h168.991v74.21h-168.991v59.514l83.646,232.015ZM-2937.7-571.5l33.281-53.452q-4.412-4.215-8.364-8.681a127.411,127.411,0,0,1-16.042-22.593,110.861,110.861,0,0,1-10.139-24.965A103.749,103.749,0,0,1-2942.5-708a103.872,103.872,0,0,1,4.4-29.841,113.218,113.218,0,0,1,12.54-27.467,133.5,133.5,0,0,1,19.707-24.346,159.548,159.548,0,0,1,25.9-20.48A131.456,131.456,0,0,1-2886.5-851a131.179,131.179,0,0,1,4.459-33.858,140.261,140.261,0,0,1,12.79-31.535,160.96,160.96,0,0,1,20.238-28.538,188.849,188.849,0,0,1,26.8-24.863,219.18,219.18,0,0,1,32.485-20.514,247.018,247.018,0,0,1,37.286-15.49,269.65,269.65,0,0,1,41.2-9.789A286.859,286.859,0,0,1-2667-1019a286.84,286.84,0,0,1,44.237,3.413,269.62,269.62,0,0,1,41.2,9.789,247.038,247.038,0,0,1,37.285,15.49,219.238,219.238,0,0,1,32.487,20.514,188.977,188.977,0,0,1,26.8,24.863,160.941,160.941,0,0,1,20.237,28.538,140.171,140.171,0,0,1,12.79,31.535A131.147,131.147,0,0,1-2447.5-851a132.425,132.425,0,0,1-11.032,52.74,157.583,157.583,0,0,1-30.742,45.878,191.583,191.583,0,0,1-23.544,20.966l26.1,76.792a7,7,0,0,1-10.209,8.267l-80.906-48.181a6.982,6.982,0,0,1-2.258-2.142q-7.694,2.541-15.647,4.63h0l0,0h0A103.619,103.619,0,0,0-2594.5-708c0-35.526-18.1-68.925-50.963-94.046S-2722.024-841-2768.5-841c-40.692,0-80.276,10.962-111.46,30.866C-2855.517-735.279-2767.946-683-2667-683a280.757,280.757,0,0,0,71.264-9.052,106.505,106.505,0,0,1-6.732,23.96,117.936,117.936,0,0,1-12.093,22.145,135.962,135.962,0,0,1-16.894,19.905A157.716,157.716,0,0,1-2652.6-608.8a179.876,179.876,0,0,1-24.832,14.15,199.606,199.606,0,0,1-27.966,10.633A221.053,221.053,0,0,1-2768.5-575a227.564,227.564,0,0,1-35.067-2.7,213.946,213.946,0,0,1-32.661-7.749q-4.5-1.455-8.9-3.108a7.134,7.134,0,0,1-1.162.491l-83.317,26.923a7.212,7.212,0,0,1-2.221.358A7.017,7.017,0,0,1-2937.7-571.5Zm341.965-120.55h0Z" transform="translate(3210 1074)" fill="#fff"/>
  </g>
</svg>
