<svg xmlns="http://www.w3.org/2000/svg" xmlns:xlink="http://www.w3.org/1999/xlink" width="1000" height="1000" viewBox="0 0 1000 1000">
  <defs>
    <clipPath id="clip-HuskHomes_GUI">
      <rect width="1000" height="1000"/>
    </clipPath>
  </defs>
  <g id="HuskHomes_GUI" data-name="HuskHomes GUI" clip-path="url(#clip-HuskHomes_GUI)">
    <rect width="1000" height="1000" fill="#142b42"/>
    <path id="Intersection_2" data-name="Intersection 2" d="M-1055.5,998.4V934.167c15.12-4.6,41.329-12.5,75.176-22.346l75.057-303.7V358.232h-66.86V97.5h257.736V358.232h-70.1v53.62h248.031V520.77H-784.488v87.349l89.424,227.369c116.287-27.9,234.182-51.218,311.987-53.883C-237.35,776.614-114.292,864.727-55.5,915.893V998.4ZM-851.472,875.6q19.574-5.3,40.027-10.71l-21.284-69.627Zm456.483-557.024q-22.973-22.672-22.973-67.117V143.647q0-19.52,19.22-19.52t19.219,19.52V251.154q0,28.528,13.063,42.793t37.988,14.264q50.75,0,50.75-57.057V143.647q0-19.52,19.219-19.52,18.919,0,18.919,19.52V251.454q0,44.445-22.523,67.117t-66.366,22.673Q-372.017,341.244-394.989,318.571Zm-200,9.459a88.133,88.133,0,0,1-36.786-37.537q-12.612-24.324-12.613-57.658,0-33.634,12.913-58.108a90.472,90.472,0,0,1,37.238-37.838q24.324-13.364,58.258-13.364A144.943,144.943,0,0,1-502.2,127.58a103.657,103.657,0,0,1,31.982,13.664q6.607,3.9,7.658,10.36a18.92,18.92,0,0,1-1.951,12.162,16.36,16.36,0,0,1-9.009,7.958q-6.007,2.253-13.214-1.951a91.44,91.44,0,0,0-23.123-9.61,105.253,105.253,0,0,0-26.126-3q-33.634,0-50.9,19.519t-17.267,56.157q0,36.936,17.717,56.156t52.553,19.219a128.683,128.683,0,0,0,20.27-1.651,136.558,136.558,0,0,0,20.57-4.955v-49.25H-526.07q-15.615,0-15.615-14.414,0-14.114,15.615-14.114h49.55q15.616,0,15.616,15.615v72.973q0,13.814-10.811,17.718a189.75,189.75,0,0,1-30.331,7.958,185.438,185.438,0,0,1-33.633,3.153Q-570.815,341.244-594.989,328.03Zm400.15-7.207V143.947q0-19.82,19.219-19.82t19.22,19.82V320.823q0,19.82-19.22,19.82T-194.839,320.823Z" transform="translate(1055.5 2)" fill="#fff"/>
  </g>
</svg>
