<svg xmlns="http://www.w3.org/2000/svg" xmlns:xlink="http://www.w3.org/1999/xlink" width="1400" height="1400" viewBox="0 0 1400 1400">
  <defs>
    <linearGradient id="linear-gradient" x1="0.5" x2="0.5" y2="1" gradientUnits="objectBoundingBox">
      <stop offset="0" stop-color="#142b42"/>
      <stop offset="0.626" stop-color="#0e1d2d"/>
      <stop offset="1" stop-color="#08111b"/>
    </linearGradient>
    <filter id="Path_19">
      <feOffset dx="24" dy="32" input="SourceAlpha"/>
      <feGaussianBlur stdDeviation="24" result="blur"/>
      <feFlood flood-opacity="0.161" result="color"/>
      <feComposite operator="out" in="SourceGraphic" in2="blur"/>
      <feComposite operator="in" in="color"/>
      <feComposite operator="in" in2="SourceGraphic"/>
    </filter>
    <filter id="Union_20" x="181.486" y="79.059" width="1064.026" height="1321.548" filterUnits="userSpaceOnUse">
      <feOffset dx="24" dy="32" input="SourceAlpha"/>
      <feGaussianBlur stdDeviation="24" result="blur-2"/>
      <feFlood flood-opacity="0.161"/>
      <feComposite operator="in" in2="blur-2"/>
      <feComposite in="SourceGraphic"/>
    </filter>
    <clipPath id="clip-HuskHomes_RTP">
      <rect width="1400" height="1400"/>
    </clipPath>
  </defs>
  <g id="HuskHomes_RTP" data-name="HuskHomes RTP" clip-path="url(#clip-HuskHomes_RTP)">
    <g data-type="innerShadowGroup">
      <path id="Path_19-2" data-name="Path 19" d="M150,0H1250a150,150,0,0,1,150,150V1250a150,150,0,0,1-150,150H150A150,150,0,0,1,0,1250V150A150,150,0,0,1,150,0Z" fill="url(#linear-gradient)"/>
      <g transform="matrix(1, 0, 0, 1, 0, 0)" filter="url(#Path_19)">
        <path id="Path_19-3" data-name="Path 19" d="M150,0H1250a150,150,0,0,1,150,150V1250a150,150,0,0,1-150,150H150A150,150,0,0,1,0,1250V150A150,150,0,0,1,150,0Z" fill="#fff"/>
      </g>
    </g>
    <g transform="matrix(1, 0, 0, 1, 0, 0)" filter="url(#Union_20)">
      <path id="Union_20-2" data-name="Union 20" d="M-877.513-3896.154c-77.08-2.731-121.769-12.4-164.988-21.75-38.011-8.225-73.914-15.993-134.36-18.254-123.817-4.632-217.869,18.077-218.8,18.308a60,60,0,0,1-72.587-43.946,60.025,60.025,0,0,1,28.092-66.2l125.569-345-.02-.007v-400h-65a25,25,0,0,1-25-25v-250a25,25,0,0,1,25-25h250a25,25,0,0,1,25,25v250a25,25,0,0,1-25,25h-65v400l-.053.02,118.727,326.2c21.484,3.511,40.289,7.58,58.813,11.588,39.836,8.618,77.462,16.76,143.86,19.112,132.577,4.7,250.27-18.623,251.443-18.859a60,60,0,0,1,70.657,46.985A60,60,0,0,1-598.15-3917.3c-4.857.978-110.191,21.843-239.061,21.844Q-857.037-3895.452-877.513-3896.154Zm-425.971-156.5c28.544-2.514,61.031-4.221,96.208-4.12l-47.354-130.1ZM-1314.611-4373Zm120-210v-120h225a25,25,0,0,1,25,25v70a25,25,0,0,1-25,25Z" transform="translate(1699.49 5192.06)" fill="#fff"/>
    </g>
    <path id="Path_52" data-name="Path 52" d="M-508.617,2.511q-10.6,0-16.182-5.859t-5.58-16.461V-174.654q0-22.041,22.041-22.041h67.8q32.922,0,50.778,15.9t17.856,44.361q0,22.041-11.3,36.688t-32.224,19.949q14.787,4.464,24.273,21.483l17.3,32.085q5.859,10.6,2.232,19.67T-389.2,2.511q-9.207,0-15.066-3.906t-10.044-12L-441.1-62.775q-4.185-7.812-10.323-10.6a34.81,34.81,0,0,0-14.508-2.79h-21.2v56.358q0,10.6-5.441,16.461T-508.617,2.511Zm21.483-109.926h38.781q34.875,0,34.875-27.9,0-27.621-34.875-27.621h-38.781ZM-273.141,2.511q-10.6,0-16.182-5.859t-5.58-16.461V-160.983h-49.383q-18.135,0-18.135-17.856t18.135-17.856h142.011q18.135,0,18.135,17.856t-18.135,17.856h-49.383V-19.809q0,10.6-5.441,16.461T-273.141,2.511Zm129.456,0q-10.6,0-16.182-5.859t-5.58-16.461V-174.654q0-22.041,22.041-22.041h67.8q32.922,0,50.778,16.6T-6.975-133.92q0,29.574-17.856,46.314t-50.778,16.74H-122.2v51.057q0,10.6-5.44,16.461T-143.685,2.511ZM-122.2-104.346h39.339q34.317,0,34.317-29.574,0-29.016-34.317-29.016H-122.2Z" transform="translate(1328 282)" fill="#fff"/>
  </g>
</svg>
