<svg xmlns="http://www.w3.org/2000/svg" xmlns:xlink="http://www.w3.org/1999/xlink" width="1400" height="1400" viewBox="0 0 1400 1400">
  <defs>
    <linearGradient id="linear-gradient" x1="0.5" x2="0.5" y2="1" gradientUnits="objectBoundingBox">
      <stop offset="0" stop-color="#142b42"/>
      <stop offset="0.626" stop-color="#0e1d2d"/>
      <stop offset="1" stop-color="#08111b"/>
    </linearGradient>
    <filter id="Path_21">
      <feOffset dx="24" dy="32" input="SourceAlpha"/>
      <feGaussianBlur stdDeviation="24" result="blur"/>
      <feFlood flood-opacity="0.161" result="color"/>
      <feComposite operator="out" in="SourceGraphic" in2="blur"/>
      <feComposite operator="in" in="color"/>
      <feComposite operator="in" in2="SourceGraphic"/>
    </filter>
    <filter id="Union_20" x="158.118" y="71.226" width="1131.765" height="1321.548" filterUnits="userSpaceOnUse">
      <feOffset dx="24" dy="32" input="SourceAlpha"/>
      <feGaussianBlur stdDeviation="24" result="blur-2"/>
      <feFlood flood-opacity="0.161"/>
      <feComposite operator="in" in2="blur-2"/>
      <feComposite in="SourceGraphic"/>
    </filter>
    <clipPath id="clip-HuskClaims">
      <rect width="1400" height="1400"/>
    </clipPath>
  </defs>
  <g id="HuskClaims" clip-path="url(#clip-HuskClaims)">
    <g data-type="innerShadowGroup">
      <path id="Path_21-2" data-name="Path 21" d="M150,0H1250a150,150,0,0,1,150,150V1250a150,150,0,0,1-150,150H150A150,150,0,0,1,0,1250V150A150,150,0,0,1,150,0Z" fill="url(#linear-gradient)"/>
      <g transform="matrix(1, 0, 0, 1, 0, 0)" filter="url(#Path_21)">
        <path id="Path_21-3" data-name="Path 21" d="M150,0H1250a150,150,0,0,1,150,150V1250a150,150,0,0,1-150,150H150A150,150,0,0,1,0,1250V150A150,150,0,0,1,150,0Z" fill="#fff"/>
      </g>
    </g>
    <g transform="matrix(1, 0, 0, 1, 0, 0)" filter="url(#Union_20)">
      <path id="Union_20-2" data-name="Union 20" d="M-877.513-3896.154c-77.08-2.731-121.769-12.4-164.988-21.75-38.011-8.225-73.914-15.993-134.36-18.254-123.817-4.632-217.869,18.077-218.8,18.308a60,60,0,0,1-72.587-43.946,60.025,60.025,0,0,1,28.092-66.2l125.569-345-.02-.007v-400h-65a25,25,0,0,1-25-25v-250a25,25,0,0,1,25-25h250a25,25,0,0,1,25,25v250a25,25,0,0,1-25,25h-65v400l-.053.02,118.727,326.2c21.484,3.511,40.289,7.58,58.813,11.588,39.836,8.618,77.462,16.76,143.86,19.112,132.577,4.7,250.27-18.623,251.443-18.859a60,60,0,0,1,70.657,46.985A60,60,0,0,1-598.15-3917.3c-4.857.978-110.191,21.843-239.061,21.844Q-857.037-3895.452-877.513-3896.154Zm-425.971-156.5c28.544-2.514,61.031-4.221,96.208-4.12l-47.354-130.1ZM-756-4311.322l-63.523-110.026a19.557,19.557,0,0,1,7.159-26.717l69.69-40.236-220.257-381.5a20,20,0,0,1,7.321-27.32l48.93-28.25a20,20,0,0,1,27.32,7.322l220.258,381.5,66.949-38.652a19.558,19.558,0,0,1,26.717,7.16l63.525,110.026a146.7,146.7,0,0,1-53.7,200.392,146.043,146.043,0,0,1-73.211,19.678A146.627,146.627,0,0,1-756-4311.322ZM-1314.611-4373Zm120-210v-120h225a25,25,0,0,1,25,25v70a25,25,0,0,1-25,25Z" transform="translate(1676.12 5184.23)" fill="#fff"/>
    </g>
  </g>
</svg>
