<svg xmlns="http://www.w3.org/2000/svg" xmlns:xlink="http://www.w3.org/1999/xlink" width="1000" height="1000" viewBox="0 0 1000 1000">
  <defs>
    <clipPath id="clip-HuskBungeeRTP">
      <rect width="1000" height="1000"/>
    </clipPath>
  </defs>
  <g id="HuskBungeeRTP" clip-path="url(#clip-HuskBungeeRTP)">
    <rect width="1000" height="1000" fill="#142b42"/>
    <path id="Intersection_4" data-name="Intersection 4" d="M-3195.5,998V933.794c15.121-4.6,41.33-12.49,75.179-22.336l75.061-303.566V358.116h-66.864V97.5h257.75V358.116h-70.1v53.6h248.044v108.87h-248.044v87.311l89.429,227.267c116.294-27.884,234.2-51.2,312-53.859,145.747-4.989,268.807,83.087,327.6,134.229V998Zm204.038-122.751q19.575-5.3,40.029-10.705l-21.285-69.6Zm600.511-554.525v-174.7q0-19.51,19.52-19.51h72.377q34.836,0,53.756,17.409t18.92,48.627q0,31.217-18.92,48.777t-53.756,17.56h-53.457v61.834q0,19.811-19.22,19.811T-2390.95,320.724Zm38.44-92.151h47.45q41.444,0,41.444-36.02,0-35.719-41.444-35.72h-47.45Zm-173.884,92.151V158.634h-58.562q-16.517,0-16.517-16.209,0-15.908,16.517-15.908h155.564q16.518,0,16.517,15.908,0,16.209-16.517,16.209h-58.562v162.09q0,19.811-19.22,19.811T-2526.394,320.724Zm-113.219,16.359q-5.106-3.451-9.01-10.656l-30.332-55.831q-5.406-10.206-12.764-13.658t-18.769-3.452h-28.531v67.237q0,19.811-19.22,19.811t-19.22-19.811v-174.7q0-19.51,19.52-19.51h72.377q34.836,0,53.756,16.659t18.92,46.676q0,23.714-12.312,39.172t-35.438,20.862q15.317,4.8,25.227,23.112l22.524,41.724q5.106,9.605,1.953,17.709t-15.467,8.1Q-2634.508,340.535-2639.612,337.083Zm-99.406-112.112h46.849q42.045,0,42.045-34.219,0-33.919-42.045-33.919h-46.849Z" transform="translate(3195.5 2)" fill="#fff"/>
  </g>
</svg>
