<svg xmlns="http://www.w3.org/2000/svg" xmlns:xlink="http://www.w3.org/1999/xlink" width="1400" height="1400" viewBox="0 0 1400 1400">
  <defs>
    <linearGradient id="linear-gradient" x1="0.5" x2="0.5" y2="1" gradientUnits="objectBoundingBox">
      <stop offset="0" stop-color="#142b42"/>
      <stop offset="0.626" stop-color="#0e1d2d"/>
      <stop offset="1" stop-color="#08111b"/>
    </linearGradient>
    <filter id="Path_19">
      <feOffset dx="24" dy="32" input="SourceAlpha"/>
      <feGaussianBlur stdDeviation="24" result="blur"/>
      <feFlood flood-opacity="0.161" result="color"/>
      <feComposite operator="out" in="SourceGraphic" in2="blur"/>
      <feComposite operator="in" in="color"/>
      <feComposite operator="in" in2="SourceGraphic"/>
    </filter>
    <filter id="Union_26" x="181.485" y="79.06" width="1075.263" height="1321.548" filterUnits="userSpaceOnUse">
      <feOffset dx="24" dy="32" input="SourceAlpha"/>
      <feGaussianBlur stdDeviation="24" result="blur-2"/>
      <feFlood flood-opacity="0.161"/>
      <feComposite operator="in" in2="blur-2"/>
      <feComposite in="SourceGraphic"/>
    </filter>
    <clipPath id="clip-HuskSync">
      <rect width="1400" height="1400"/>
    </clipPath>
  </defs>
  <g id="HuskSync" clip-path="url(#clip-HuskSync)">
    <g data-type="innerShadowGroup">
      <path id="Path_19-2" data-name="Path 19" d="M150,0H1250a150,150,0,0,1,150,150V1250a150,150,0,0,1-150,150H150A150,150,0,0,1,0,1250V150A150,150,0,0,1,150,0Z" fill="url(#linear-gradient)"/>
      <g transform="matrix(1, 0, 0, 1, 0, 0)" filter="url(#Path_19)">
        <path id="Path_19-3" data-name="Path 19" d="M150,0H1250a150,150,0,0,1,150,150V1250a150,150,0,0,1-150,150H150A150,150,0,0,1,0,1250V150A150,150,0,0,1,150,0Z" fill="#fff"/>
      </g>
    </g>
    <g id="Group_1" data-name="Group 1">
      <g transform="matrix(1, 0, 0, 1, 0, 0)" filter="url(#Union_26)">
        <path id="Union_26-2" data-name="Union 26" d="M592.487-2050.154c-77.08-2.73-121.769-12.4-164.988-21.751-38.011-8.225-73.914-15.991-134.36-18.253-123.817-4.631-217.869,18.078-218.8,18.308A60,60,0,0,1,1.748-2115.8a60,60,0,0,1,43.946-72.586c1.973-.484,23.763-5.751,59.494-11.055l119.22-327.556-.02-.005v-400h-65a25,25,0,0,1-25-25v-250a25,25,0,0,1,25-25h250a25,25,0,0,1,25,25v250a25,25,0,0,1-25,25h-65v82.448c52.621,2.378,106.079-.249,124.525-9.565,13.007-6.569,25.239-14.717,38.189-23.343,37.191-24.774,83.476-55.606,162.1-55.606,104.662,0,195.775,78.8,205.819,87.788.155.139.311.28.465.42l13.1-13.1c15.988-15.986,43.3-4.227,42.668,18.376l-3.182,114.19a25,25,0,0,1-24.294,24.294l-114.192,3.182c-.255.007-.513.012-.765.012-22.1,0-33.416-26.871-17.609-42.678l19.169-19.169c-22.029-17.955-74.952-53.314-121.179-53.314-42.312,0-63.5,14.113-95.569,35.476-14.615,9.735-31.18,20.77-50.619,30.587-36.7,18.535-93.022,23.524-143.016,23.524-12.389,0-24.389-.307-35.606-.789V-2527l-.053.02L468.5-2185.837c34.573,7.3,70.541,13.715,128.234,15.758,132.577,4.7,250.27-18.623,251.443-18.858a60,60,0,0,1,70.657,46.983A60,60,0,0,1,871.85-2071.3c-4.857.978-110.191,21.843-239.061,21.846Q612.963-2049.451,592.487-2050.154ZM297.625-2210.073c12.521.467,24.16,1.139,35.076,1.983l-48.331-132.787L236.926-2210.53q11.185-.242,22.8-.25Q278.2-2210.78,297.625-2210.073Zm273.618-268.605c-45.982-23.157-81.167-54.462-91.754-64.392l-18.9,18.9a24.458,24.458,0,0,1-17.488,7.379c-13.084,0-25.608-10.364-25.179-25.752l3.181-114.191a25,25,0,0,1,24.294-24.3l114.193-3.182c22.6-.628,34.361,26.681,18.374,42.67l-13.526,13.525c9.089,8.129,32.68,28.005,60.788,42.162,20.205,10.176,38.083,14.949,51.7,13.8,48.019-4.043,80.936-31.766,115.787-61.119,6.908-5.818,13.608-11.451,20.174-16.707a60,60,0,0,1,84.334,9.36,60,60,0,0,1-9.359,84.336c-5.811,4.649-11.732,9.644-17.847,14.8-40.921,34.465-96.965,81.665-183.02,88.912q-6.992.59-14.118.589C640.715-2451.885,606.6-2460.87,571.243-2478.678Z" transform="translate(229.49 3346.06)" fill="#fff"/>
      </g>
    </g>
  </g>
</svg>
