<svg xmlns="http://www.w3.org/2000/svg" xmlns:xlink="http://www.w3.org/1999/xlink" width="1400" height="1400" viewBox="0 0 1400 1400">
  <defs>
    <linearGradient id="linear-gradient" x1="0.5" x2="0.5" y2="1" gradientUnits="objectBoundingBox">
      <stop offset="0" stop-color="#142b42"/>
      <stop offset="0.626" stop-color="#0e1d2d"/>
      <stop offset="1" stop-color="#08111b"/>
    </linearGradient>
    <filter id="Path_19">
      <feOffset dx="24" dy="32" input="SourceAlpha"/>
      <feGaussianBlur stdDeviation="24" result="blur"/>
      <feFlood flood-opacity="0.161" result="color"/>
      <feComposite operator="out" in="SourceGraphic" in2="blur"/>
      <feComposite operator="in" in="color"/>
      <feComposite operator="in" in2="SourceGraphic"/>
    </filter>
    <filter id="Union_33" x="145.541" y="69.275" width="1156.917" height="1327.331" filterUnits="userSpaceOnUse">
      <feOffset dx="24" dy="32" input="SourceAlpha"/>
      <feGaussianBlur stdDeviation="24" result="blur-2"/>
      <feFlood flood-opacity="0.161"/>
      <feComposite operator="in" in2="blur-2"/>
      <feComposite in="SourceGraphic"/>
    </filter>
    <clipPath id="clip-PAPIProxyBridge">
      <rect width="1400" height="1400"/>
    </clipPath>
  </defs>
  <g id="PAPIProxyBridge" clip-path="url(#clip-PAPIProxyBridge)">
    <g data-type="innerShadowGroup">
      <path id="Path_19-2" data-name="Path 19" d="M150,0H1250a150,150,0,0,1,150,150V1250a150,150,0,0,1-150,150H150A150,150,0,0,1,0,1250V150A150,150,0,0,1,150,0Z" fill="url(#linear-gradient)"/>
      <g transform="matrix(1, 0, 0, 1, 0, 0)" filter="url(#Path_19)">
        <path id="Path_19-3" data-name="Path 19" d="M150,0H1250a150,150,0,0,1,150,150V1250a150,150,0,0,1-150,150H150A150,150,0,0,1,0,1250V150A150,150,0,0,1,150,0Z" fill="#fff"/>
      </g>
    </g>
    <g transform="matrix(1, 0, 0, 1, 0, 0)" filter="url(#Union_33)">
      <path id="Union_33-2" data-name="Union 33" d="M-2301.068-5046.372c-77.08-2.731-121.77-12.4-164.988-21.751-38.011-8.223-73.915-15.993-134.36-18.253-123.817-4.632-217.869,18.078-218.805,18.308a60,60,0,0,1-72.586-43.945,60,60,0,0,1,43.945-72.587c4.487-1.1,111.5-26.945,251.931-21.692,71.009,2.657,113.834,11.923,155.252,20.884,39.835,8.62,77.462,16.76,143.859,19.112,132.578,4.7,250.271-18.623,251.443-18.858a60,60,0,0,1,70.657,46.984,60,60,0,0,1-46.986,70.657c-4.857.977-110.189,21.842-239.06,21.844C-2273.982-5045.67-2287.439-5045.891-2301.068-5046.372Zm132.22-253.008a17.2,17.2,0,0,1-6.683-4.291,18.454,18.454,0,0,1-4.089-6.878,28.69,28.69,0,0,1-1.365-9.2v-153.379a31.035,31.035,0,0,1,1.33-9.536,17.262,17.262,0,0,1,3.988-6.81,16.69,16.69,0,0,1,6.649-4.086,28.919,28.919,0,0,1,9.308-1.363,28.211,28.211,0,0,1,9.188,1.363,16.44,16.44,0,0,1,6.563,4.086,17.313,17.313,0,0,1,3.938,6.81,31.41,31.41,0,0,1,1.312,9.536v153.379a31.41,31.41,0,0,1-1.312,9.536,17.313,17.313,0,0,1-3.938,6.81,16.44,16.44,0,0,1-6.562,4.086,28.2,28.2,0,0,1-9.187,1.363A26.927,26.927,0,0,1-2168.847-5299.38Zm-181.1,0a17.207,17.207,0,0,1-6.681-4.291,18.454,18.454,0,0,1-4.091-6.878,28.7,28.7,0,0,1-1.363-9.2v-151.2a29.936,29.936,0,0,1,1.346-9.416,16.949,16.949,0,0,1,4.041-6.725,17,17,0,0,1,6.731-4.037,30.059,30.059,0,0,1,9.427-1.344h66.277a108.442,108.442,0,0,1,15.171,1.013,78.878,78.878,0,0,1,13.33,3.039,61.145,61.145,0,0,1,11.489,5.065,52.985,52.985,0,0,1,9.648,7.093,51.585,51.585,0,0,1,7.637,8.9,52.853,52.853,0,0,1,5.456,10.48,62.433,62.433,0,0,1,3.272,12.063,81.957,81.957,0,0,1,1.091,13.647,82.108,82.108,0,0,1-1.091,13.655,62.786,62.786,0,0,1-3.272,12.089,53.256,53.256,0,0,1-5.456,10.522,52.076,52.076,0,0,1-7.637,8.956,53.071,53.071,0,0,1-9.648,7.152,60.908,60.908,0,0,1-11.489,5.108,78.255,78.255,0,0,1-13.33,3.064,107.445,107.445,0,0,1-15.171,1.022h-45.548v49.854a29.393,29.393,0,0,1-1.329,9.2,18.571,18.571,0,0,1-3.99,6.878,16.659,16.659,0,0,1-6.58,4.291,26.625,26.625,0,0,1-9.1,1.431A26.934,26.934,0,0,1-2349.948-5299.38Zm30.138-102.912h38.457a53.7,53.7,0,0,0,14.677-1.8,27.564,27.564,0,0,0,10.483-5.415,22.421,22.421,0,0,0,6.289-9.023,35.052,35.052,0,0,0,2.1-12.634,33.8,33.8,0,0,0-2.1-12.4,22.025,22.025,0,0,0-6.289-8.854,27.735,27.735,0,0,0-10.483-5.312,54.787,54.787,0,0,0-14.677-1.771h-38.457Zm-93.038,103.252a16.674,16.674,0,0,1-6.1-3.269c-3.348-2.894-6.33-7.478-8.864-13.623l-11.456-26.154H-2529l-11.182,26.154c-2.714,6.325-5.65,10.954-8.728,13.758a15.122,15.122,0,0,1-5.59,3.167,24.549,24.549,0,0,1-7.5,1.055,23.213,23.213,0,0,1-9.819-1.907,15.423,15.423,0,0,1-6.545-5.722,15.047,15.047,0,0,1-2.387-8.514,25.676,25.676,0,0,1,2.659-10.283l69.822-152.835a43.856,43.856,0,0,1,4.773-8,26,26,0,0,1,5.592-5.482,22.633,22.633,0,0,1,6.478-3.167,25.565,25.565,0,0,1,7.432-1.057,25.572,25.572,0,0,1,7.432,1.057,22.67,22.67,0,0,1,6.478,3.167,24.793,24.793,0,0,1,5.523,5.482,41.22,41.22,0,0,1,4.568,8l70.366,152.835a27.171,27.171,0,0,1,2.694,10.454,14.882,14.882,0,0,1-2.284,8.479,15.22,15.22,0,0,1-6.239,5.62,20.879,20.879,0,0,1-9.17,1.873A28.4,28.4,0,0,1-2412.848-5299.039Zm-101.972-76.009h61.641l-30.82-72.467h-.547Zm-201.417,75.668a17.2,17.2,0,0,1-6.683-4.291,18.458,18.458,0,0,1-4.091-6.878,28.7,28.7,0,0,1-1.365-9.2v-151.2a29.891,29.891,0,0,1,1.348-9.416,16.949,16.949,0,0,1,4.041-6.725,16.992,16.992,0,0,1,6.733-4.037,30.053,30.053,0,0,1,9.427-1.344h66.277a108.436,108.436,0,0,1,15.17,1.013,78.878,78.878,0,0,1,13.33,3.039,61.159,61.159,0,0,1,11.49,5.065,53.094,53.094,0,0,1,9.647,7.093,51.594,51.594,0,0,1,7.638,8.9,52.758,52.758,0,0,1,5.454,10.48,62.54,62.54,0,0,1,3.273,12.063,81.922,81.922,0,0,1,1.09,13.647,82.073,82.073,0,0,1-1.09,13.655,62.894,62.894,0,0,1-3.273,12.089,53.238,53.238,0,0,1-5.454,10.522,52.14,52.14,0,0,1-7.638,8.956,53.052,53.052,0,0,1-9.647,7.152,60.922,60.922,0,0,1-11.49,5.108,78.255,78.255,0,0,1-13.33,3.064,107.439,107.439,0,0,1-15.17,1.022H-2686.1v49.854a29.393,29.393,0,0,1-1.329,9.2,18.564,18.564,0,0,1-3.99,6.878,16.659,16.659,0,0,1-6.58,4.291,26.625,26.625,0,0,1-9.1,1.431A26.917,26.917,0,0,1-2716.237-5299.38Zm30.137-102.912h38.457a53.684,53.684,0,0,0,14.676-1.8,27.56,27.56,0,0,0,10.485-5.415,22.435,22.435,0,0,0,6.289-9.023,35.045,35.045,0,0,0,2.1-12.634,33.8,33.8,0,0,0-2.1-12.4,22.025,22.025,0,0,0-6.289-8.854,27.731,27.731,0,0,0-10.485-5.312,54.768,54.768,0,0,0-14.676-1.771H-2686.1Zm-25.994-165.529a245.549,245.549,0,0,1-45.918-4.319,239.062,239.062,0,0,1-42.774-12.387,233.493,233.493,0,0,1-38.711-19.6,226.986,226.986,0,0,1-33.734-25.955,218.17,218.17,0,0,1-27.833-31.456,208.527,208.527,0,0,1-21.02-36.1,201.022,201.022,0,0,1-13.283-39.887,199.935,199.935,0,0,1-4.634-42.818,199.272,199.272,0,0,1,11.328-66.35,206.684,206.684,0,0,1,31.564-57.786,221.381,221.381,0,0,1,48.183-45.86,232.793,232.793,0,0,1,61.18-30.571l0-.055v-.009c-.155-3.886-.314-7.9-.314-11.889a222.618,222.618,0,0,1,5.143-47.6,223.483,223.483,0,0,1,14.75-44.331,231.537,231.537,0,0,1,23.341-40.112,242.1,242.1,0,0,1,30.915-34.945,252.067,252.067,0,0,1,37.473-28.828,259.35,259.35,0,0,1,43.017-21.764,265.458,265.458,0,0,1,47.541-13.755,273.247,273.247,0,0,1,51.05-4.8,271.288,271.288,0,0,1,67.729,8.532,261.819,261.819,0,0,1,60.785,24.084,252.738,252.738,0,0,1,51.407,37.367,240.361,240.361,0,0,1,39.6,48.38,156.036,156.036,0,0,1,39.507-17.6,161.633,161.633,0,0,1,44.849-6.31,163.5,163.5,0,0,1,30.612,2.881,159.181,159.181,0,0,1,28.516,8.257,155.687,155.687,0,0,1,25.81,13.067,151.342,151.342,0,0,1,22.488,17.3,145.436,145.436,0,0,1,18.556,20.972A139.108,139.108,0,0,1-2090.965-6048a134.151,134.151,0,0,1,8.856,26.593,133.286,133.286,0,0,1,3.087,28.545,133.73,133.73,0,0,1-2.631,26.361,135.716,135.716,0,0,1-7.5,24.7,209.245,209.245,0,0,1,64.316,23.416,203.76,203.76,0,0,1,27.581,18.706,197.564,197.564,0,0,1,23.8,22.685,190.156,190.156,0,0,1,19.464,26.152,182.937,182.937,0,0,1,14.584,29.1,176.887,176.887,0,0,1,12.325,65.008,178.021,178.021,0,0,1-4.115,38.074,178.86,178.86,0,0,1-11.8,35.463,185.259,185.259,0,0,1-18.677,32.089,193.924,193.924,0,0,1-24.736,27.956,201.606,201.606,0,0,1-29.98,23.066,207.623,207.623,0,0,1-34.412,17.417,212.392,212.392,0,0,1-38.028,11.005,218.353,218.353,0,0,1-40.831,3.838Zm70.812-173.27v51.877a25.982,25.982,0,0,0,25.968,25.938h363.545a25.983,25.983,0,0,0,25.969-25.938v-51.877a25.983,25.983,0,0,0-25.969-25.938h-363.545A25.983,25.983,0,0,0-2641.283-5741.09Zm0-129.691v51.876a25.982,25.982,0,0,0,25.968,25.939h363.545a25.983,25.983,0,0,0,25.969-25.939v-51.876a25.983,25.983,0,0,0-25.969-25.937h-363.545A25.982,25.982,0,0,0-2641.283-5870.781Zm0-129.69v51.875a25.983,25.983,0,0,0,25.968,25.938h363.545A25.983,25.983,0,0,0-2225.8-5948.6v-51.875a25.983,25.983,0,0,0-25.969-25.938h-363.545A25.982,25.982,0,0,0-2641.283-6000.472Zm342.982,303.245a19.422,19.422,0,0,1-6.192-4.169,19.367,19.367,0,0,1-4.172-6.184,19.3,19.3,0,0,1-1.532-7.573,19.3,19.3,0,0,1,1.532-7.572,19.4,19.4,0,0,1,4.172-6.183,19.43,19.43,0,0,1,6.192-4.169,19.4,19.4,0,0,1,7.58-1.529,19.406,19.406,0,0,1,7.58,1.529,19.42,19.42,0,0,1,6.19,4.169,19.386,19.386,0,0,1,4.174,6.183,19.308,19.308,0,0,1,1.531,7.572,19.3,19.3,0,0,1-1.531,7.573,19.376,19.376,0,0,1-4.174,6.184,19.364,19.364,0,0,1-6.19,4.169,19.371,19.371,0,0,1-7.58,1.529A19.377,19.377,0,0,1-2298.3-5697.227Zm-51.935,0a19.4,19.4,0,0,1-6.192-4.169,19.343,19.343,0,0,1-4.172-6.184,19.3,19.3,0,0,1-1.532-7.573,19.3,19.3,0,0,1,1.532-7.572,19.367,19.367,0,0,1,4.172-6.183,19.411,19.411,0,0,1,6.192-4.169,19.4,19.4,0,0,1,7.58-1.529,19.412,19.412,0,0,1,7.58,1.529,19.436,19.436,0,0,1,6.19,4.169,19.378,19.378,0,0,1,4.174,6.183,19.334,19.334,0,0,1,1.531,7.572,19.33,19.33,0,0,1-1.531,7.573,19.376,19.376,0,0,1-4.174,6.184,19.381,19.381,0,0,1-6.19,4.169,19.377,19.377,0,0,1-7.58,1.529A19.371,19.371,0,0,1-2350.236-5697.227Zm51.935-129.692a19.413,19.413,0,0,1-6.192-4.169,19.36,19.36,0,0,1-4.172-6.183,19.3,19.3,0,0,1-1.532-7.572,19.307,19.307,0,0,1,1.532-7.573,19.4,19.4,0,0,1,4.172-6.183,19.429,19.429,0,0,1,6.192-4.169,19.366,19.366,0,0,1,7.58-1.529,19.371,19.371,0,0,1,7.58,1.529,19.419,19.419,0,0,1,6.19,4.169,19.4,19.4,0,0,1,4.174,6.183,19.305,19.305,0,0,1,1.531,7.573,19.3,19.3,0,0,1-1.531,7.572,19.37,19.37,0,0,1-4.174,6.183,19.387,19.387,0,0,1-6.19,4.169,19.371,19.371,0,0,1-7.58,1.529A19.366,19.366,0,0,1-2298.3-5826.919Zm-51.935,0a19.413,19.413,0,0,1-6.192-4.169,19.337,19.337,0,0,1-4.172-6.183,19.3,19.3,0,0,1-1.532-7.572,19.307,19.307,0,0,1,1.532-7.573,19.372,19.372,0,0,1,4.172-6.183,19.41,19.41,0,0,1,6.192-4.169,19.366,19.366,0,0,1,7.58-1.529,19.378,19.378,0,0,1,7.58,1.529,19.435,19.435,0,0,1,6.19,4.169,19.373,19.373,0,0,1,4.174,6.183,19.331,19.331,0,0,1,1.531,7.573,19.327,19.327,0,0,1-1.531,7.572,19.37,19.37,0,0,1-4.174,6.183,19.387,19.387,0,0,1-6.19,4.169,19.371,19.371,0,0,1-7.58,1.529A19.36,19.36,0,0,1-2350.236-5826.919Zm51.935-129.69a19.4,19.4,0,0,1-6.192-4.169,19.368,19.368,0,0,1-4.172-6.183,19.3,19.3,0,0,1-1.532-7.573,19.3,19.3,0,0,1,1.532-7.572,19.369,19.369,0,0,1,4.172-6.183,19.407,19.407,0,0,1,6.192-4.169,19.349,19.349,0,0,1,7.58-1.529,19.354,19.354,0,0,1,7.58,1.529,19.4,19.4,0,0,1,6.19,4.169,19.362,19.362,0,0,1,4.174,6.183,19.3,19.3,0,0,1,1.531,7.572,19.3,19.3,0,0,1-1.531,7.573,19.368,19.368,0,0,1-4.174,6.183,19.381,19.381,0,0,1-6.19,4.169,19.371,19.371,0,0,1-7.58,1.529A19.366,19.366,0,0,1-2298.3-5956.609Zm-51.935,0a19.4,19.4,0,0,1-6.192-4.169,19.369,19.369,0,0,1-4.172-6.183,19.3,19.3,0,0,1-1.532-7.573,19.3,19.3,0,0,1,1.532-7.572,19.345,19.345,0,0,1,4.172-6.183,19.422,19.422,0,0,1,6.192-4.169,19.349,19.349,0,0,1,7.58-1.529,19.36,19.36,0,0,1,7.58,1.529,19.4,19.4,0,0,1,6.19,4.169,19.362,19.362,0,0,1,4.174,6.183,19.329,19.329,0,0,1,1.531,7.572,19.33,19.33,0,0,1-1.531,7.573,19.368,19.368,0,0,1-4.174,6.183,19.381,19.381,0,0,1-6.19,4.169,19.371,19.371,0,0,1-7.58,1.529A19.36,19.36,0,0,1-2350.236-5956.609Z" transform="translate(3133.54 6338.28)" fill="#fff"/>
    </g>
  </g>
</svg>
