<svg xmlns="http://www.w3.org/2000/svg" xmlns:xlink="http://www.w3.org/1999/xlink" width="100" height="100" viewBox="0 0 100 100"><defs><clipPath id="b"><rect width="100" height="100"/></clipPath></defs><g id="a" clip-path="url(#b)"><path d="M17.744,39.244,14.7,31.8l-3.047,7.44a1.048,1.048,0,0,1-1.294.536L7.7,38.921a.873.873,0,0,1-.6-1.15l5.179-12.647h4.842L22.3,37.771a.873.873,0,0,1-.6,1.15l-2.656.859a1.121,1.121,0,0,1-.345.054A1.012,1.012,0,0,1,17.744,39.244ZM12.275,25.124V10.767h4.845V25.124Zm4.845-7.537V13.28h9.085a.958.958,0,0,1,1.009.9v2.512a.958.958,0,0,1-1.009.9Zm-7.47-6.819a.958.958,0,0,1-1.009-.9V.9A.958.958,0,0,1,9.651,0H19.745a.958.958,0,0,1,1.009.9V9.87a.958.958,0,0,1-1.009.9Z" transform="translate(25.21 -10.161) rotate(-30)" fill="#fff"/><path d="M17.744,39.244,14.7,31.8l-3.047,7.44a1.048,1.048,0,0,1-1.294.536L7.7,38.921a.873.873,0,0,1-.6-1.15l5.179-12.647h4.842L22.3,37.771a.873.873,0,0,1-.6,1.15l-2.656.859a1.121,1.121,0,0,1-.345.054A1.012,1.012,0,0,1,17.744,39.244ZM12.275,25.124V10.767h4.845V25.124Zm4.845-7.537V13.28h9.085a.958.958,0,0,1,1.009.9v2.512a.958.958,0,0,1-1.009.9Zm-7.47-6.819a.958.958,0,0,1-1.009-.9V.9A.958.958,0,0,1,9.651,0H19.745a.958.958,0,0,1,1.009.9V9.87a.958.958,0,0,1-1.009.9Z" transform="translate(25.21 91.314) rotate(-30)" fill="#fff"/><path d="M17.744,39.244,14.7,31.8l-3.047,7.44a1.048,1.048,0,0,1-1.294.536L7.7,38.921a.873.873,0,0,1-.6-1.15l5.179-12.647h4.842L22.3,37.771a.873.873,0,0,1-.6,1.15l-2.656.859a1.121,1.121,0,0,1-.345.054A1.012,1.012,0,0,1,17.744,39.244ZM12.275,25.124V10.767h4.845V25.124Zm4.845-7.537V13.28h9.085a.958.958,0,0,1,1.009.9v2.512a.958.958,0,0,1-1.009.9Zm-7.47-6.819a.958.958,0,0,1-1.009-.9V.9A.958.958,0,0,1,9.651,0H19.745a.958.958,0,0,1,1.009.9V9.87a.958.958,0,0,1-1.009.9Z" transform="translate(75.21 41.314) rotate(-30)" fill="#fff"/><path d="M17.744,39.244,14.7,31.8l-3.047,7.44a1.048,1.048,0,0,1-1.294.536L7.7,38.921a.873.873,0,0,1-.6-1.15l5.179-12.647h4.842L22.3,37.771a.873.873,0,0,1-.6,1.15l-2.656.859a1.121,1.121,0,0,1-.345.054A1.012,1.012,0,0,1,17.744,39.244ZM12.275,25.124V10.767h4.845V25.124Zm4.845-7.537V13.28h9.085a.958.958,0,0,1,1.009.9v2.512a.958.958,0,0,1-1.009.9Zm-7.47-6.819a.958.958,0,0,1-1.009-.9V.9A.958.958,0,0,1,9.651,0H19.745a.958.958,0,0,1,1.009.9V9.87a.958.958,0,0,1-1.009.9Z" transform="translate(-24.79 41.314) rotate(-30)" fill="#fff"/></g></svg>