<svg xmlns="http://www.w3.org/2000/svg" xmlns:xlink="http://www.w3.org/1999/xlink" width="1400" height="1400" viewBox="0 0 1400 1400">
  <defs>
    <linearGradient id="linear-gradient" x1="0.5" x2="0.5" y2="1" gradientUnits="objectBoundingBox">
      <stop offset="0" stop-color="#142b42"/>
      <stop offset="0.626" stop-color="#0e1d2d"/>
      <stop offset="1" stop-color="#08111b"/>
    </linearGradient>
    <filter id="Path_19">
      <feOffset dx="24" dy="32" input="SourceAlpha"/>
      <feGaussianBlur stdDeviation="24" result="blur"/>
      <feFlood flood-opacity="0.161" result="color"/>
      <feComposite operator="out" in="SourceGraphic" in2="blur"/>
      <feComposite operator="in" in="color"/>
      <feComposite operator="in" in2="SourceGraphic"/>
    </filter>
    <filter id="Union_19" x="181.486" y="117.435" width="1064.025" height="1283.172" filterUnits="userSpaceOnUse">
      <feOffset dx="24" dy="32" input="SourceAlpha"/>
      <feGaussianBlur stdDeviation="24" result="blur-2"/>
      <feFlood flood-opacity="0.161"/>
      <feComposite operator="in" in2="blur-2"/>
      <feComposite in="SourceGraphic"/>
    </filter>
    <clipPath id="clip-SignSearch_1">
      <rect width="1400" height="1400"/>
    </clipPath>
  </defs>
  <g id="SignSearch_1" data-name="SignSearch – 1" clip-path="url(#clip-SignSearch_1)">
    <g data-type="innerShadowGroup">
      <path id="Path_19-2" data-name="Path 19" d="M150,0H1250a150,150,0,0,1,150,150V1250a150,150,0,0,1-150,150H150A150,150,0,0,1,0,1250V150A150,150,0,0,1,150,0Z" fill="url(#linear-gradient)"/>
      <g transform="matrix(1, 0, 0, 1, 0, 0)" filter="url(#Path_19)">
        <path id="Path_19-3" data-name="Path 19" d="M150,0H1250a150,150,0,0,1,150,150V1250a150,150,0,0,1-150,150H150A150,150,0,0,1,0,1250V150A150,150,0,0,1,150,0Z" fill="#fff"/>
      </g>
    </g>
    <g transform="matrix(1, 0, 0, 1, 0, 0)" filter="url(#Union_19)">
      <path id="Union_19-2" data-name="Union 19" d="M-2374.512-2238.531c-77.08-2.73-121.77-12.4-164.988-21.75-38.012-8.224-73.914-15.992-134.361-18.254-123.817-4.632-217.868,18.078-218.8,18.308a60,60,0,0,1-72.586-43.945,60,60,0,0,1,43.945-72.586c4.486-1.1,111.5-26.946,251.932-21.693,71.007,2.657,113.834,11.922,155.251,20.884,39.836,8.619,77.461,16.761,143.86,19.112,132.577,4.7,250.269-18.623,251.443-18.859a60,60,0,0,1,70.656,46.986,60,60,0,0,1-46.986,70.656c-4.857.977-110.19,21.842-239.061,21.843Q-2354.036-2237.828-2374.512-2238.531ZM-2809.6-2506.17a36.361,36.361,0,0,1-14.966-3.2,38.036,38.036,0,0,1-12.191-8.73,40.768,40.768,0,0,1-8.205-12.971,43.033,43.033,0,0,1-3-15.921v-789.193a43.033,43.033,0,0,1,3-15.921,40.757,40.757,0,0,1,8.205-12.97,38.031,38.031,0,0,1,12.191-8.731,36.358,36.358,0,0,1,14.966-3.2h319.74v231.314c0,22.509,17.212,40.821,38.368,40.821h217.424v73.107h-.043a17.167,17.167,0,0,0-12.01,4.782l-133.821,129.4a16.372,16.372,0,0,0-3.962,18.191,17.178,17.178,0,0,0,6.114,7.676,17.814,17.814,0,0,0,10.254,3.126h77.161v142.841c0,11.251,9.472,20.4,21.115,20.4h35.193v-326.425a17.172,17.172,0,0,1,11.967,4.782l133.906,129.4a16.743,16.743,0,0,1,4.909,8.874,16.529,16.529,0,0,1-.948,9.316,17.154,17.154,0,0,1-6.114,7.676,17.8,17.8,0,0,1-10.254,3.126h-77.159v142.841a19.94,19.94,0,0,1-6.17,14.443,21.363,21.363,0,0,1-14.945,5.962h-35.193v158.345a43.036,43.036,0,0,1-3.005,15.921,40.774,40.774,0,0,1-8.205,12.971,38.046,38.046,0,0,1-12.193,8.73,36.352,36.352,0,0,1-14.966,3.2Zm148.9-344.987a22.857,22.857,0,0,0-9.006,1.864l-111.591,47.47c-9.98,4.238-16.686,15.244-16.686,27.387v137a32.154,32.154,0,0,0,3.849,15.359,27.225,27.225,0,0,0,10.369,10.75l111.591,63.292a23.277,23.277,0,0,0,11.509,3.1,23.263,23.263,0,0,0,11.507-3.1l111.594-63.292a27.071,27.071,0,0,0,10.386-10.772,32.218,32.218,0,0,0,3.83-15.338v-137a31.857,31.857,0,0,0-4.581-16.629,26.315,26.315,0,0,0-12.1-10.7l-111.592-47.47a22.356,22.356,0,0,0-9.07-1.924h0Zm17.229,165.7,85.839-39.559v81.49l-85.839,48.689Zm-120.176-81.552v-.668l103.007-43.82,103.009,43.82v.668l-103.009,47.471Zm324.95-392.282V-3377h9.751a36.529,36.529,0,0,1,14.729,3.083,37.828,37.828,0,0,1,12.45,8.823l156.513,166.684a40.707,40.707,0,0,1,8.293,13.222,42.708,42.708,0,0,1,2.9,15.521v10.375Z" transform="translate(3196.49 3534.43)" fill="#fff"/>
    </g>
  </g>
</svg>
