<svg xmlns="http://www.w3.org/2000/svg" xmlns:xlink="http://www.w3.org/1999/xlink" width="1000" height="1000" viewBox="0 0 1000 1000">
  <defs>
    <clipPath id="clip-SignSearch">
      <rect width="1000" height="1000"/>
    </clipPath>
  </defs>
  <g id="SignSearch" clip-path="url(#clip-SignSearch)">
    <rect width="1000" height="1000" fill="#142b42"/>
    <path id="Intersection_3" data-name="Intersection 3" d="M-1707.822,997.5c0-1.442,0-5.807,0-12.489-.034-247.647-.017-299.732,0-299.816L-2029.1,520.922V97.537l65.716-37.706L-1266.9,411.844V835.228l-71.784,33.512-248.178-125.417V997.5Zm31.205-452.5a12.567,12.567,0,0,0-2.765.642,11.881,11.881,0,0,0-2.483,1.236,13.08,13.08,0,0,0-2.206,1.828,16.491,16.491,0,0,0-1.929,2.417,19.941,19.941,0,0,0-1.558,2.835,20.786,20.786,0,0,0-1.093,3.086,23.257,23.257,0,0,0-.629,3.34,27.651,27.651,0,0,0-.168,3.6,20.034,20.034,0,0,0,.408,3.694,21.417,21.417,0,0,0,1.1,3.638,25.05,25.05,0,0,0,1.791,3.586,31.415,31.415,0,0,0,2.49,3.541c1.934,2.355,4.02,4.684,6.2,6.925s4.532,4.469,6.965,6.6,5.056,4.254,7.754,6.277c2.722,2.042,5.6,4.048,8.567,5.963,3,1.94,6.084,3.812,9.165,5.565,3.109,1.77,6.319,3.479,9.539,5.077s6.574,3.147,9.926,4.582c3.371,1.443,6.846,2.816,10.328,4.081,4.453,1.618,8.878,3.027,13.155,4.189,4.315,1.172,8.594,2.124,12.719,2.83a112.748,112.748,0,0,0,12.255,1.43c1.979.119,3.964.178,5.9.178,1.967,0,3.941-.062,5.867-.185a86.187,86.187,0,0,0,11.1-1.42,72.2,72.2,0,0,0,10.248-2.8,63.642,63.642,0,0,0,9.358-4.209,60.238,60.238,0,0,0,8.433-5.638,57.554,57.554,0,0,0,7.318-6.981,57.985,57.985,0,0,0,6.011-8.229,63.567,63.567,0,0,0,4.67-9.473,75.173,75.173,0,0,0,3.3-10.707,73.533,73.533,0,0,0,1.842-13.18,61.573,61.573,0,0,0-.7-12.537,57.459,57.459,0,0,0-3.242-11.826,60.694,60.694,0,0,0-5.758-11.057,77.868,77.868,0,0,0-8.236-10.384,103.289,103.289,0,0,0-10.651-9.813,139.613,139.613,0,0,0-12.966-9.2c-4.656-2.937-9.757-5.818-15.16-8.561l-34.9-17.672c-3-1.5-5.791-3.037-8.3-4.556a77.216,77.216,0,0,1-6.761-4.569,49.156,49.156,0,0,1-5.265-4.6,31.37,31.37,0,0,1-3.8-4.639,26.608,26.608,0,0,1-2.534-4.852,25.987,25.987,0,0,1-1.458-5.233,29.182,29.182,0,0,1-.387-5.626,36.468,36.468,0,0,1,.685-6.034,38.047,38.047,0,0,1,2.3-7.6,31.627,31.627,0,0,1,3.708-6.5,31.129,31.129,0,0,1,5.145-5.4,36.318,36.318,0,0,1,6.613-4.308,40.029,40.029,0,0,1,7.888-3.005,49.019,49.019,0,0,1,8.967-1.479c1.431-.106,2.921-.16,4.425-.16,1.821,0,3.724.079,5.656.235a91.859,91.859,0,0,1,11.236,1.662c2.512.526,5,1.118,7.409,1.761,2.421.649,4.821,1.368,7.133,2.137s4.621,1.616,6.848,2.516,4.436,1.876,6.555,2.9,4.262,2.163,6.347,3.377,4.181,2.542,6.233,3.952,4.114,2.939,6.112,4.532,4.027,3.325,5.99,5.117a35.626,35.626,0,0,0,4.126,3.322,24.09,24.09,0,0,0,4.07,2.262,17.452,17.452,0,0,0,4.013,1.2,14.852,14.852,0,0,0,2.432.2,14.418,14.418,0,0,0,1.526-.081,21.277,21.277,0,0,0,3.751-.734,18.551,18.551,0,0,0,3.392-1.368,18.1,18.1,0,0,0,3.028-2.005,19.793,19.793,0,0,0,2.66-2.646,22.814,22.814,0,0,0,2.184-3.11,21.7,21.7,0,0,0,1.6-3.395,22.839,22.839,0,0,0,1.014-3.677,25.918,25.918,0,0,0,.424-3.957,19.225,19.225,0,0,0-.292-4.018,19.21,19.21,0,0,0-1.13-3.861,21.654,21.654,0,0,0-1.967-3.7,27.07,27.07,0,0,0-2.8-3.526c-2.3-2.379-4.744-4.69-7.258-6.87s-5.149-4.27-7.86-6.241-5.539-3.849-8.444-5.612c-2.885-1.751-5.915-3.428-9.005-4.985-3.068-1.544-6.244-3-9.438-4.315-3.172-1.31-6.45-2.525-9.743-3.611-3.269-1.077-6.645-2.057-10.034-2.914-3.357-.848-6.826-1.6-10.309-2.229-4.661-.843-9.266-1.461-13.685-1.834-3.543-.3-7.065-.453-10.467-.453-.806,0-1.62.009-2.418.025a105.71,105.71,0,0,0-12.117.942,94.287,94.287,0,0,0-11.378,2.279,87.287,87.287,0,0,0-10.483,3.5,76.938,76.938,0,0,0-9.444,4.625,71.783,71.783,0,0,0-8.44,5.731,71.145,71.145,0,0,0-7.471,6.823,65.155,65.155,0,0,0-6.357,7.832,67.181,67.181,0,0,0-5.1,8.767,74.441,74.441,0,0,0-3.875,9.708,87.367,87.367,0,0,0-2.673,10.664,84.929,84.929,0,0,0-1.414,12.5,68.932,68.932,0,0,0,.562,11.718,61.2,61.2,0,0,0,2.539,10.984,60.52,60.52,0,0,0,4.526,10.285,66.84,66.84,0,0,0,6.569,9.662,81.121,81.121,0,0,0,8.626,9.025,121.938,121.938,0,0,0,23.848,16.385l34.07,18.184c3.265,1.745,6.323,3.5,9.086,5.21,2.779,1.724,5.329,3.448,7.579,5.123a67.266,67.266,0,0,1,6.024,5.015,39.628,39.628,0,0,1,4.432,4.891,27.778,27.778,0,0,1,3.011,4.995,24.877,24.877,0,0,1,1.774,5.333,25.573,25.573,0,0,1,.529,5.657,30.359,30.359,0,0,1-.718,5.967,29.969,29.969,0,0,1-2.3,6.744,24.682,24.682,0,0,1-3.691,5.544,24.924,24.924,0,0,1-5.054,4.342,30.82,30.82,0,0,1-6.387,3.142,31.567,31.567,0,0,1-7.782,1.669c-1.3.122-2.67.184-4.073.184-1.64,0-3.374-.085-5.154-.25a80.919,80.919,0,0,1-10.618-1.768c-3.733-.86-7.753-2.013-11.948-3.426-2.845-.958-5.674-2-8.409-3.1-2.706-1.086-5.4-2.261-8.015-3.492-2.588-1.219-5.158-2.525-7.636-3.883-2.459-1.345-4.9-2.781-7.269-4.27s-4.675-3.061-6.9-4.7-4.426-3.368-6.542-5.161-4.192-3.678-6.19-5.623-3.955-3.979-5.847-6.085a28.472,28.472,0,0,0-3.052-3.083,17.33,17.33,0,0,0-3.01-2.1,11.284,11.284,0,0,0-2.969-1.117,9.174,9.174,0,0,0-1.9-.2A8.913,8.913,0,0,0-1676.616,545Zm-169.842-58.141a9.5,9.5,0,0,0-2.257.722,9.717,9.717,0,0,0-2.018,1.272,11.879,11.879,0,0,0-1.781,1.821,16.174,16.174,0,0,0-1.546,2.366,20.561,20.561,0,0,0-1.236,2.748,22.23,22.23,0,0,0-.85,2.966,25.333,25.333,0,0,0-.467,3.188,30.122,30.122,0,0,0-.085,3.41,21.662,21.662,0,0,0,.389,3.479,22.093,22.093,0,0,0,.955,3.4,24.359,24.359,0,0,0,1.523,3.318,28.829,28.829,0,0,0,2.1,3.245c1.619,2.142,3.364,4.257,5.188,6.286s3.78,4.028,5.808,5.94,4.207,3.8,6.444,5.6,4.639,3.575,7.1,5.263,5.02,3.326,7.581,4.857,5.2,3,7.871,4.376,5.418,2.684,8.174,3.888c2.774,1.212,5.63,2.354,8.489,3.393,3.658,1.329,7.286,2.462,10.785,3.366a95.609,95.609,0,0,0,10.4,2.1,78.716,78.716,0,0,0,9.986.8c.365.005.694.007,1.009.007a66.8,66.8,0,0,0,8.549-.54,62.057,62.057,0,0,0,8.985-1.832,53.961,53.961,0,0,0,8.265-3.093,50.6,50.6,0,0,0,7.515-4.374,51.665,51.665,0,0,0,6.736-5.673,53.348,53.348,0,0,0,5.81-6.881,57.664,57.664,0,0,0,4.729-7.992,66.65,66.65,0,0,0,3.624-9.1,81.283,81.283,0,0,0,2.5-10.194,80.664,80.664,0,0,0,1.282-12.449,66.75,66.75,0,0,0-.76-11.738,59.541,59.541,0,0,0-2.8-10.966,58.514,58.514,0,0,0-4.821-10.144,69.429,69.429,0,0,0-6.816-9.417,85.606,85.606,0,0,0-8.764-8.792,109.843,109.843,0,0,0-10.637-8.136,142.209,142.209,0,0,0-12.416-7.455l-28.612-15.281c-2.467-1.3-4.761-2.639-6.821-3.973a60.231,60.231,0,0,1-5.574-4.047,40.549,40.549,0,0,1-4.359-4.132,27.872,27.872,0,0,1-3.168-4.228,25.83,25.83,0,0,1-2.139-4.478,27.093,27.093,0,0,1-1.268-4.877,31.607,31.607,0,0,1-.4-5.288,39.83,39.83,0,0,1,.468-5.71,40.906,40.906,0,0,1,1.757-7.241,32.354,32.354,0,0,1,2.923-6.252,29.115,29.115,0,0,1,4.109-5.271,30.753,30.753,0,0,1,5.318-4.292,31,31,0,0,1,6.373-3.109,35.549,35.549,0,0,1,7.268-1.708,43.958,43.958,0,0,1,5.632-.351c.834,0,1.695.022,2.558.065a64.3,64.3,0,0,1,9.143,1.165c2.036.4,4.066.87,6.034,1.392s3.92,1.112,5.813,1.754,3.784,1.36,5.584,2.119,3.615,1.6,5.35,2.487,3.479,1.876,5.186,2.942,3.421,2.237,5.1,3.484,3.37,2.61,5.009,4.032,3.3,2.973,4.916,4.582a28.834,28.834,0,0,0,3.381,2.965,18.2,18.2,0,0,0,3.32,1.973,12.388,12.388,0,0,0,3.256.974,10.4,10.4,0,0,0,1.507.112,10.111,10.111,0,0,0,1.687-.142,15.352,15.352,0,0,0,3.012-.825,14.256,14.256,0,0,0,2.712-1.4,15.2,15.2,0,0,0,2.408-1.989,18.194,18.194,0,0,0,2.1-2.574,22.274,22.274,0,0,0,1.71-2.992,22.87,22.87,0,0,0,1.237-3.236,24.779,24.779,0,0,0,.759-3.479,28.083,28.083,0,0,0,.279-3.719,20.723,20.723,0,0,0-.3-3.751,19.79,19.79,0,0,0-.97-3.574,21.048,21.048,0,0,0-1.641-3.391,24.322,24.322,0,0,0-2.307-3.2c-1.894-2.149-3.9-4.228-5.953-6.179s-4.217-3.822-6.432-5.574-4.523-3.412-6.9-4.967c-2.357-1.543-4.828-3.011-7.347-4.364-2.5-1.343-5.088-2.6-7.691-3.725-2.588-1.122-5.257-2.15-7.933-3.056s-5.411-1.707-8.165-2.4c-2.738-.683-5.558-1.27-8.384-1.744a102.377,102.377,0,0,0-11.124-1.263c-1.7-.1-3.394-.144-5.046-.144-1.825,0-3.649.059-5.421.176a75.017,75.017,0,0,0-9.833,1.3,68.824,68.824,0,0,0-9.221,2.528,66.321,66.321,0,0,0-8.484,3.653,61.515,61.515,0,0,0-7.627,4.678,61.078,61.078,0,0,0-6.8,5.69,64.512,64.512,0,0,0-6,6.69,62.889,62.889,0,0,0-5.075,7.608,68.4,68.4,0,0,0-4.038,8.449,78.726,78.726,0,0,0-3.025,9.3,94.8,94.8,0,0,0-2.027,10.161,83,83,0,0,0-.335,22.892,61.773,61.773,0,0,0,6.1,19.812,65.376,65.376,0,0,0,12.7,17.049,95.891,95.891,0,0,0,19.706,14.514l28.007,15.768c2.687,1.515,5.2,3.041,7.461,4.537,2.281,1.508,4.378,3.026,6.231,4.513a54.665,54.665,0,0,1,4.964,4.472,34.317,34.317,0,0,1,3.669,4.418,26.145,26.145,0,0,1,2.518,4.574,25.3,25.3,0,0,1,1.52,4.943,27.474,27.474,0,0,1,.516,5.3,33.22,33.22,0,0,1-.49,5.643,32.307,32.307,0,0,1-1.765,6.44,24.911,24.911,0,0,1-2.907,5.373,22.664,22.664,0,0,1-4.033,4.3,24.971,24.971,0,0,1-5.136,3.232,23.327,23.327,0,0,1-6.3,1.905,32.92,32.92,0,0,1-5.236.4c-.733,0-1.5-.022-2.264-.064a56.654,56.654,0,0,1-8.665-1.208,90.757,90.757,0,0,1-9.783-2.717c-2.339-.783-4.66-1.644-6.9-2.561s-4.448-1.9-6.592-2.952c-2.128-1.039-4.244-2.163-6.292-3.339-2.027-1.165-4.046-2.417-6-3.722s-3.867-2.695-5.713-4.144-3.668-2.994-5.427-4.6-3.478-3.293-5.149-5.054c-1.658-1.745-3.3-3.6-4.877-5.507a24.159,24.159,0,0,0-2.545-2.786,13.62,13.62,0,0,0-2.5-1.858,8.221,8.221,0,0,0-2.45-.932,6.518,6.518,0,0,0-1.24-.121A6.386,6.386,0,0,0-1846.458,486.861Z" transform="translate(2140 2)" fill="#fff"/>
  </g>
</svg>
