<svg xmlns="http://www.w3.org/2000/svg" xmlns:xlink="http://www.w3.org/1999/xlink" width="1400" height="1400" viewBox="0 0 1400 1400">
  <defs>
    <linearGradient id="linear-gradient" x1="0.5" x2="0.5" y2="1" gradientUnits="objectBoundingBox">
      <stop offset="0" stop-color="#142b42"/>
      <stop offset="0.626" stop-color="#0e1d2d"/>
      <stop offset="1" stop-color="#08111b"/>
    </linearGradient>
    <filter id="Path_19">
      <feOffset dx="24" dy="32" input="SourceAlpha"/>
      <feGaussianBlur stdDeviation="24" result="blur"/>
      <feFlood flood-opacity="0.161" result="color"/>
      <feComposite operator="out" in="SourceGraphic" in2="blur"/>
      <feComposite operator="in" in="color"/>
      <feComposite operator="in" in2="SourceGraphic"/>
    </filter>
    <filter id="Union_18" x="181.486" y="132.77" width="1083.953" height="1267.836" filterUnits="userSpaceOnUse">
      <feOffset dx="24" dy="32" input="SourceAlpha"/>
      <feGaussianBlur stdDeviation="24" result="blur-2"/>
      <feFlood flood-opacity="0.161"/>
      <feComposite operator="in" in2="blur-2"/>
      <feComposite in="SourceGraphic"/>
    </filter>
    <clipPath id="clip-SignSearch">
      <rect width="1400" height="1400"/>
    </clipPath>
  </defs>
  <g id="SignSearch" clip-path="url(#clip-SignSearch)">
    <g data-type="innerShadowGroup">
      <path id="Path_19-2" data-name="Path 19" d="M150,0H1250a150,150,0,0,1,150,150V1250a150,150,0,0,1-150,150H150A150,150,0,0,1,0,1250V150A150,150,0,0,1,150,0Z" fill="url(#linear-gradient)"/>
      <g transform="matrix(1, 0, 0, 1, 0, 0)" filter="url(#Path_19)">
        <path id="Path_19-3" data-name="Path 19" d="M150,0H1250a150,150,0,0,1,150,150V1250a150,150,0,0,1-150,150H150A150,150,0,0,1,0,1250V150A150,150,0,0,1,150,0Z" fill="#fff"/>
      </g>
    </g>
    <g transform="matrix(1, 0, 0, 1, 0, 0)" filter="url(#Union_18)">
      <path id="Union_18-2" data-name="Union 18" d="M-2347.512-719.207c-77.08-2.73-121.77-12.4-164.988-21.75-38.012-8.224-73.914-15.992-134.361-18.254-123.817-4.632-217.868,18.077-218.8,18.308a60,60,0,0,1-72.586-43.946,60,60,0,0,1,43.945-72.586c3.854-.947,83.375-20.156,194.759-22.217l101.47-378.691-284.776-76.306a44.723,44.723,0,0,1-16-7.95,44.832,44.832,0,0,1-11.32-13.017,44.866,44.866,0,0,1-5.613-16.313,44.717,44.717,0,0,1,1.118-17.834l112.327-419.211a44.726,44.726,0,0,1,7.949-16,44.863,44.863,0,0,1,13.019-11.32,44.812,44.812,0,0,1,16.312-5.613,44.706,44.706,0,0,1,17.835,1.117l713.819,191.267a44.7,44.7,0,0,1,16,7.951,44.833,44.833,0,0,1,11.321,13.017,44.857,44.857,0,0,1,5.612,16.313,44.7,44.7,0,0,1-1.118,17.834L-2113.921-1175.2a44.7,44.7,0,0,1-7.95,16,44.837,44.837,0,0,1-13.017,11.322,44.84,44.84,0,0,1-16.312,5.612,44.741,44.741,0,0,1-17.835-1.118l-308.3-82.609-94.431,352.425c32.958,4.138,59.068,9.788,84.645,15.322,39.836,8.619,77.461,16.76,143.86,19.111,132.577,4.7,250.269-18.622,251.443-18.859a60,60,0,0,1,70.656,46.985,60,60,0,0,1-46.985,70.657c-4.857.977-110.19,21.842-239.061,21.843Q-2327.036-718.505-2347.512-719.207Zm-157.549-941.737a137.634,137.634,0,0,0-40.594,97.979,137.694,137.694,0,0,0,24.8,79.126l-120.841,120.812a20.724,20.724,0,0,0-6.114,14.756,20.729,20.729,0,0,0,6.113,14.755l14.759,14.755a20.869,20.869,0,0,0,9.338,5.4,20.912,20.912,0,0,0,5.423.713,20.744,20.744,0,0,0,14.76-6.112l122.995-122.966.024-.022.049-.05a137.85,137.85,0,0,0,31.314,12.685,139.034,139.034,0,0,0,35.973,4.712,137.7,137.7,0,0,0,98-40.585,137.645,137.645,0,0,0,40.6-97.979,138.732,138.732,0,0,0-102.625-133.852,139.116,139.116,0,0,0-35.974-4.712A137.716,137.716,0,0,0-2505.062-1660.945Zm77.276,175.4h0a79.713,79.713,0,0,1-23.706-10.757,80.635,80.635,0,0,1-18.823-17.506,79.929,79.929,0,0,1-12.415-22.729,79.69,79.69,0,0,1-4.479-26.425,80.235,80.235,0,0,1,80.154-80.133,80.145,80.145,0,0,1,20.734,2.719,79.7,79.7,0,0,1,23.7,10.754,80.614,80.614,0,0,1,18.823,17.505,79.888,79.888,0,0,1,12.415,22.729,79.753,79.753,0,0,1,4.479,26.426,79.432,79.432,0,0,1-6.31,31.162,80.056,80.056,0,0,1-7.4,13.61,80.919,80.919,0,0,1-9.794,11.865,81.113,81.113,0,0,1-11.868,9.793,80.3,80.3,0,0,1-13.614,7.4,79.477,79.477,0,0,1-31.17,6.307A80.129,80.129,0,0,1-2427.786-1485.547Z" transform="translate(3169.49 2015.11)" fill="#fff"/>
    </g>
  </g>
</svg>
