<svg xmlns="http://www.w3.org/2000/svg" xmlns:xlink="http://www.w3.org/1999/xlink" width="1400" height="1400" viewBox="0 0 1400 1400">
  <defs>
    <linearGradient id="linear-gradient" x1="0.5" x2="0.5" y2="1" gradientUnits="objectBoundingBox">
      <stop offset="0" stop-color="#142b42"/>
      <stop offset="0.626" stop-color="#0e1d2d"/>
      <stop offset="1" stop-color="#08111b"/>
    </linearGradient>
    <filter id="Path_21">
      <feOffset dx="24" dy="32" input="SourceAlpha"/>
      <feGaussianBlur stdDeviation="24" result="blur"/>
      <feFlood flood-opacity="0.161" result="color"/>
      <feComposite operator="out" in="SourceGraphic" in2="blur"/>
      <feComposite operator="in" in="color"/>
      <feComposite operator="in" in2="SourceGraphic"/>
    </filter>
    <filter id="Exclusion_21" x="149.622" y="137.047" width="1148.756" height="1192.905" filterUnits="userSpaceOnUse">
      <feOffset dx="24" dy="32" input="SourceAlpha"/>
      <feGaussianBlur stdDeviation="24" result="blur-2"/>
      <feFlood flood-opacity="0.161"/>
      <feComposite operator="in" in2="blur-2"/>
      <feComposite in="SourceGraphic"/>
    </filter>
    <clipPath id="clip-Uniform">
      <rect width="1400" height="1400"/>
    </clipPath>
  </defs>
  <g id="Uniform" clip-path="url(#clip-Uniform)">
    <g data-type="innerShadowGroup">
      <path id="Path_21-2" data-name="Path 21" d="M150,0H1250a150,150,0,0,1,150,150V1250a150,150,0,0,1-150,150H150A150,150,0,0,1,0,1250V150A150,150,0,0,1,150,0Z" fill="url(#linear-gradient)"/>
      <g transform="matrix(1, 0, 0, 1, 0, 0)" filter="url(#Path_21)">
        <path id="Path_21-3" data-name="Path 21" d="M150,0H1250a150,150,0,0,1,150,150V1250a150,150,0,0,1-150,150H150A150,150,0,0,1,0,1250V150A150,150,0,0,1,150,0Z" fill="#fff"/>
      </g>
    </g>
    <g transform="matrix(1, 0, 0, 1, 0, 0)" filter="url(#Exclusion_21)">
      <path id="Exclusion_21-2" data-name="Exclusion 21" d="M5030.455-1558.095a530.767,530.767,0,0,1-115.506-12.69,25.324,25.324,0,0,1-14.311-8.883,25.471,25.471,0,0,1-5.578-15.86v-104.041A398.023,398.023,0,0,1,4766.4-1773.8l-90.146,52.024a24.8,24.8,0,0,1-12.48,3.348,25.771,25.771,0,0,1-18.838-8.212,530.637,530.637,0,0,1-68.662-93.049,524.3,524.3,0,0,1-47.086-107.008,25.527,25.527,0,0,1,11.639-29.608l90.146-52.014a405.474,405.474,0,0,1,0-148.46l-90.146-52.016a25.179,25.179,0,0,1-11.639-29.607,523.109,523.109,0,0,1,47.086-107.168,525.421,525.421,0,0,1,68.662-92.889,25.134,25.134,0,0,1,18.588-8.271,25.734,25.734,0,0,1,12.73,3.406l89.934,52.024a410.676,410.676,0,0,1,128.654-74.228v-104.041a25.46,25.46,0,0,1,5.58-15.86,25.312,25.312,0,0,1,14.314-8.884A531.113,531.113,0,0,1,5030.307-2607a530.842,530.842,0,0,1,115.5,12.689,25.307,25.307,0,0,1,14.313,8.884,25.449,25.449,0,0,1,5.58,15.86v103.829a398.223,398.223,0,0,1,128.656,74.228l90.137-52.024a24.849,24.849,0,0,1,12.484-3.347,25.737,25.737,0,0,1,18.834,8.218,530.521,530.521,0,0,1,68.672,93.042,524.193,524.193,0,0,1,47.076,107.008,25.51,25.51,0,0,1-11.637,29.606l-90.139,52.025a405.427,405.427,0,0,1,0,148.451l90.139,52.024c10.184,5.813,15.057,18.07,11.85,29.811a523.041,523.041,0,0,1-47.082,107.168,525.494,525.494,0,0,1-68.666,92.89,25.135,25.135,0,0,1-18.586,8.27,25.763,25.763,0,0,1-12.732-3.406l-90.137-52.024a410.561,410.561,0,0,1-128.66,74.228v104.041a25.471,25.471,0,0,1-5.578,15.86,25.331,25.331,0,0,1-14.311,8.883A531.042,531.042,0,0,1,5030.455-1558.095ZM4897.4-2281.585c-17.314,0-30.887,4.775-40.334,14.194s-14.24,23.141-14.24,40.8v189.844c0,60.83,16.27,107.191,48.352,137.793s79.084,46.135,139.709,46.135,107.223-15.522,138.516-46.135,47.164-76.964,47.164-137.793v-189.844c0-17.664-4.59-31.393-13.641-40.8s-22.434-14.194-39.746-14.194-30.8,4.775-40.049,14.194-13.943,23.15-13.943,40.8v191.027c0,15.11-1.7,28.54-5.037,39.917s-8.437,21.033-15.129,28.684a63.431,63.431,0,0,1-24.621,17.3c-9.645,3.826-20.92,5.767-33.514,5.767-12.793,0-24.221-1.941-33.969-5.767a63.212,63.212,0,0,1-24.764-17.3c-6.693-7.656-11.785-17.305-15.131-28.684s-5.043-24.813-5.043-39.917v-191.027c0-17.667-4.791-31.4-14.238-40.8S4914.725-2281.585,4897.4-2281.585Z" transform="translate(-4330.38 2784.05)" fill="#fff"/>
    </g>
  </g>
</svg>
