<svg xmlns="http://www.w3.org/2000/svg" xmlns:xlink="http://www.w3.org/1999/xlink" width="1400" height="1400" viewBox="0 0 1400 1400">
  <defs>
    <linearGradient id="linear-gradient" x1="0.5" x2="0.5" y2="1" gradientUnits="objectBoundingBox">
      <stop offset="0" stop-color="#142b42"/>
      <stop offset="0.626" stop-color="#0e1d2d"/>
      <stop offset="1" stop-color="#08111b"/>
    </linearGradient>
    <filter id="Path_19">
      <feOffset dx="24" dy="32" input="SourceAlpha"/>
      <feGaussianBlur stdDeviation="24" result="blur"/>
      <feFlood flood-opacity="0.161" result="color"/>
      <feComposite operator="out" in="SourceGraphic" in2="blur"/>
      <feComposite operator="in" in="color"/>
      <feComposite operator="in" in2="SourceGraphic"/>
    </filter>
    <filter id="Union_29" x="191.987" y="1091.28" width="1064.025" height="305.327" filterUnits="userSpaceOnUse">
      <feOffset dx="24" dy="32" input="SourceAlpha"/>
      <feGaussianBlur stdDeviation="24" result="blur-2"/>
      <feFlood flood-opacity="0.161"/>
      <feComposite operator="in" in2="blur-2"/>
      <feComposite in="SourceGraphic"/>
    </filter>
    <filter id="Union_31" x="124.701" y="169.821" width="1198.591" height="1028.878" filterUnits="userSpaceOnUse">
      <feOffset dx="24" dy="32" input="SourceAlpha"/>
      <feGaussianBlur stdDeviation="24" result="blur-3"/>
      <feFlood flood-opacity="0.161"/>
      <feComposite operator="in" in2="blur-3"/>
      <feComposite in="SourceGraphic"/>
    </filter>
    <clipPath id="clip-Velocitab">
      <rect width="1400" height="1400"/>
    </clipPath>
  </defs>
  <g id="Velocitab" clip-path="url(#clip-Velocitab)">
    <g data-type="innerShadowGroup">
      <path id="Path_19-2" data-name="Path 19" d="M150,0H1250a150,150,0,0,1,150,150V1250a150,150,0,0,1-150,150H150A150,150,0,0,1,0,1250V150A150,150,0,0,1,150,0Z" fill="url(#linear-gradient)"/>
      <g transform="matrix(1, 0, 0, 1, 0, 0)" filter="url(#Path_19)">
        <path id="Path_19-3" data-name="Path 19" d="M150,0H1250a150,150,0,0,1,150,150V1250a150,150,0,0,1-150,150H150A150,150,0,0,1,0,1250V150A150,150,0,0,1,150,0Z" fill="#fff"/>
      </g>
    </g>
    <g transform="matrix(1, 0, 0, 1, 0, 0)" filter="url(#Union_29)">
      <path id="Union_29-2" data-name="Union 29" d="M-2307.211-718.505q-19.825,0-40.3-.7c-77.08-2.73-121.77-12.4-164.988-21.75-38.011-8.224-73.914-15.992-134.36-18.254-123.817-4.632-217.869,18.078-218.8,18.308a60,60,0,0,1-72.586-43.946,60,60,0,0,1,43.946-72.586c4.487-1.1,111.5-26.946,251.931-21.692,71.007,2.656,113.834,11.923,155.251,20.884,39.835,8.619,77.462,16.76,143.859,19.112,132.577,4.7,250.27-18.623,251.443-18.859a60,60,0,0,1,70.657,46.985,60,60,0,0,1-46.985,70.657C-2073.008-739.371-2178.34-718.506-2307.211-718.505Z" transform="translate(3179.99 2011.11)" fill="#fff"/>
    </g>
    <g transform="matrix(1, 0, 0, 1, 0, 0)" filter="url(#Union_31)">
      <path id="Union_31-2" data-name="Union 31" d="M-1887.259-4056.591V-4297.3q0-49.311,32.631-49.311,33.213,0,33.214,49.311v240.706q0,48.476-33.214,48.476Q-1887.26-4008.115-1887.259-4056.591Zm-169.541,28.426v-94.449h-97.991c-114.579,0-171.868-58.952-171.868-170.23v-156.122h-139.334l-48.764,108.385q-11.624,24.911-27.814,36.954t-43.59,12.042q-26.569,0-43.591-12.042t-27.814-36.954L-2866.8-4805.628q-16.6-37.371.416-61.868t51.892-24.5q28.23,0,42.76,12.872t25.323,37.785l162.737,377.018,162.737-377.848q9.963-24.081,25.323-36.955t41.931-12.872q32.381,0,48.571,24.5t-.415,61.868l-118.249,262.823h97.113V-4664.57q0-63.942,63.1-63.944,62.27,0,62.271,63.944v121.765h78.877q48.158,0,48.158,47.333,0,46.506-48.158,46.505h-78.877v151.14q0,34.877,16.191,52.317c10.793,11.625,25.4,19.948,49.2,19.948h79.094v-106.694c0-17.842,27.407-26.761,37-14.133l104.816,152.447c5.71,7.516,5.71,19.845,0,27.362L-2019.8-4014.034c-3.1,4.088-8.078,5.919-13.383,5.919C-2044.266-4008.115-2056.8-4016.1-2056.8-4028.165Z" transform="translate(3048.21 5102.31)" fill="#fff" stroke="rgba(0,0,0,0)" stroke-miterlimit="10" stroke-width="1"/>
    </g>
  </g>
</svg>
